<svg width="69" height="68" viewBox="0 0 69 68" fill="none" xmlns="http://www.w3.org/2000/svg">
<rect x="2.5" y="2" width="64" height="64" rx="32" stroke="url(#paint0_linear_692_3520)" stroke-width="4"/>
<path d="M24.4669 48V44.84C24.4669 42.8933 24.8002 41.2933 25.4669 40.04C26.1335 38.7867 27.0802 37.7733 28.3069 37C29.5602 36.2 31.0669 35.5333 32.8269 35L35.2669 34.24C36.3602 33.8933 37.2935 33.4667 38.0669 32.96C38.8669 32.4533 39.4802 31.8267 39.9069 31.08C40.3335 30.3067 40.5469 29.4133 40.5469 28.4V28.24C40.5469 26.6667 40.0135 25.44 38.9469 24.56C37.8802 23.6533 36.4802 23.2 34.7469 23.2C32.9602 23.2 31.5069 23.68 30.3869 24.64C29.2935 25.6 28.7469 27.0133 28.7469 28.88V29.52H24.5869V28.92C24.5869 26.8933 25.0269 25.1867 25.9069 23.8C26.7869 22.3867 28.0002 21.3067 29.5469 20.56C31.0935 19.8133 32.8269 19.44 34.7469 19.44C36.6669 19.44 38.3735 19.8 39.8669 20.52C41.3869 21.24 42.5735 22.2533 43.4269 23.56C44.3069 24.8667 44.7469 26.4 44.7469 28.16V28.52C44.7469 30.3333 44.3869 31.84 43.6669 33.04C42.9469 34.24 41.9469 35.2267 40.6669 36C39.4135 36.7733 37.9602 37.4267 36.3069 37.96L33.9469 38.68C32.6935 39.0533 31.6802 39.4667 30.9069 39.92C30.1602 40.3467 29.6002 40.8667 29.2269 41.48C28.8802 42.0933 28.7069 42.88 28.7069 43.84V44.24H44.5069V48H24.4669Z" fill="url(#paint1_linear_692_3520)"/>
<defs>
<linearGradient id="paint0_linear_692_3520" x1="15.8977" y1="6.3596" x2="56.6023" y2="48.1404" gradientUnits="userSpaceOnUse">
<stop stop-color="#7363B7"/>
<stop offset="1" stop-color="white" stop-opacity="0"/>
</linearGradient>
<linearGradient id="paint1_linear_692_3520" x1="10.5" y1="34" x2="58.5" y2="34" gradientUnits="userSpaceOnUse">
<stop stop-color="#1F1F1F"/>
<stop offset="1" stop-color="#858585"/>
</linearGradient>
</defs>
</svg>
