<svg width="69" height="68" viewBox="0 0 69 68" fill="none" xmlns="http://www.w3.org/2000/svg">
<rect x="2.5" y="2" width="64" height="64" rx="32" stroke="url(#paint0_linear_692_3523)" stroke-width="4"/>
<path d="M34.5311 48.56C32.4778 48.56 30.6511 48.1867 29.0511 47.44C27.4511 46.6933 26.1978 45.6133 25.2911 44.2C24.4111 42.7867 23.9711 41.1067 23.9711 39.16V38.44H28.1711V39.08C28.1711 40.84 28.7444 42.24 29.8911 43.28C31.0644 44.2933 32.6111 44.8 34.5311 44.8C36.4511 44.8 37.9444 44.32 39.0111 43.36C40.0778 42.4 40.6111 41.1867 40.6111 39.72V39.36C40.6111 38.32 40.3578 37.48 39.8511 36.84C39.3444 36.2 38.6644 35.7333 37.8111 35.44C36.9578 35.12 35.9978 34.96 34.9311 34.96H29.8511V30.12L39.6911 24.32V23.76H24.6511V20H44.2511V25.68L34.8511 31.28V31.84H36.5711C37.9844 31.84 39.3178 32.1067 40.5711 32.64C41.8244 33.1733 42.8378 33.9867 43.6111 35.08C44.4111 36.1733 44.8111 37.56 44.8111 39.24V39.72C44.8111 41.5067 44.3844 43.0667 43.5311 44.4C42.6778 45.7067 41.4778 46.7333 39.9311 47.48C38.3844 48.2 36.5844 48.56 34.5311 48.56Z" fill="url(#paint1_linear_692_3523)"/>
<defs>
<linearGradient id="paint0_linear_692_3523" x1="15.8977" y1="6.3596" x2="56.6023" y2="48.1404" gradientUnits="userSpaceOnUse">
<stop stop-color="#3A86FF"/>
<stop offset="1" stop-color="white" stop-opacity="0"/>
</linearGradient>
<linearGradient id="paint1_linear_692_3523" x1="10.5" y1="34" x2="58.5" y2="34" gradientUnits="userSpaceOnUse">
<stop stop-color="#1F1F1F"/>
<stop offset="1" stop-color="#858585"/>
</linearGradient>
</defs>
</svg>
