<svg width="71" height="68" viewBox="0 0 71 68" fill="none" xmlns="http://www.w3.org/2000/svg">
<path fill-rule="evenodd" clip-rule="evenodd" d="M7.33594 6.17773C8.97656 6.17773 10.3438 4.81055 10.3438 3.16992C10.3438 1.5293 8.97656 0.298828 7.33594 0.298828C5.69531 0.298828 4.32812 1.66602 4.32812 3.16992C4.32812 4.81055 5.69531 6.17773 7.33594 6.17773Z" fill="url(#paint0_linear_825_3018)"/>
<path fill-rule="evenodd" clip-rule="evenodd" d="M35.5 4.94727C22.5117 4.94727 6.51562 18.3457 6.51562 33.9316C6.51562 49.9277 19.5039 63.0527 35.5 63.0527C51.4961 63.0527 64.4844 49.9277 64.4844 33.9316C64.4844 18.3457 48.625 4.94727 35.5 4.94727ZM20.1875 17.6621C22.9219 17.6621 25.3828 19.0293 26.75 21.4902C26.8867 21.9004 26.75 22.3105 26.4766 22.4473C26.3398 22.584 26.2031 22.584 26.0664 22.584C25.9297 22.584 25.6562 22.4473 25.5195 22.1738C24.4258 20.2598 22.375 19.0293 20.1875 19.0293C17.8633 19.0293 15.9492 20.2598 14.7188 22.1738C14.582 22.584 14.0352 22.7207 13.7617 22.4473C13.3516 22.3105 13.2148 21.7637 13.4883 21.4902C14.8555 19.0293 17.4531 17.6621 20.1875 17.6621ZM35.2266 21.4902C36.7305 19.0293 39.1914 17.6621 41.9258 17.6621C44.6602 17.6621 47.2578 19.0293 48.4883 21.4902C48.7617 21.9004 48.625 22.3105 48.3516 22.4473C48.0781 22.584 47.9414 22.584 47.9414 22.584C47.668 22.584 47.3945 22.4473 47.2578 22.1738C46.1641 20.2598 44.1133 19.0293 41.9258 19.0293C39.7383 19.0293 37.6875 20.2598 36.457 22.1738C36.3203 22.584 35.7734 22.7207 35.5 22.4473C35.2266 22.3105 35.0898 21.7637 35.2266 21.4902ZM15.5391 34.0684H46.4375C46.7109 34.0684 46.8477 34.2051 46.9844 34.3418C47.2578 34.6152 47.2578 34.752 47.2578 34.8887C46.7109 43.502 39.6016 50.2012 30.9883 50.2012C25.3828 50.2012 20.3242 47.3301 17.4531 42.8184C17.3164 42.6816 17.1797 42.5449 17.1797 42.2715C15.8125 40.084 14.9922 37.623 14.8555 34.8887C14.8555 34.752 14.9922 34.4785 14.9922 34.3418C15.1289 34.2051 15.4023 34.0684 15.5391 34.0684ZM45.4805 57.8574C45.207 57.4473 45.4805 57.0371 45.7539 56.9004C50.4023 54.8496 54.3672 51.4316 57.1016 46.9199C57.2383 46.5098 57.7852 46.5098 58.0586 46.6465C58.332 46.7832 58.4688 47.3301 58.332 47.6035C55.4609 52.3887 51.3594 56.0801 46.3008 58.1309C46.3008 58.2676 46.1641 58.2676 46.1641 58.2676C45.7539 58.2676 45.6172 58.1309 45.4805 57.8574Z" fill="url(#paint1_linear_825_3018)"/>
<path fill-rule="evenodd" clip-rule="evenodd" d="M61.2031 7.54492L64.0742 8.91211L64.4844 9.32227L65.8516 12.3301L67.082 9.32227L67.4922 8.91211L70.5 7.54492L67.4922 6.31445C67.3555 6.17773 67.2188 6.04102 67.082 5.9043L65.8516 2.89648L64.4844 5.9043C64.3477 6.04102 64.2109 6.17773 64.0742 6.31445L61.2031 7.54492Z" fill="url(#paint2_linear_825_3018)"/>
<path fill-rule="evenodd" clip-rule="evenodd" d="M45.6172 35.709H16.3594C16.6328 37.7598 17.3164 39.6738 18.2734 41.4512H43.7031C44.7969 39.6738 45.4805 37.7598 45.6172 35.709Z" fill="url(#paint3_linear_825_3018)"/>
<path fill-rule="evenodd" clip-rule="evenodd" d="M42.7461 42.9551H19.3672C21.9648 46.5098 26.2031 48.6973 30.9883 48.6973C35.7734 48.6973 40.0117 46.5098 42.7461 42.9551Z" fill="url(#paint4_linear_825_3018)"/>
<path fill-rule="evenodd" clip-rule="evenodd" d="M63.6641 61.6855C62.0234 61.6855 60.6562 63.0527 60.6562 64.6934C60.6562 66.334 62.0234 67.7012 63.6641 67.7012C65.3047 67.7012 66.6719 66.334 66.6719 64.6934C66.6719 63.0527 65.3047 61.6855 63.6641 61.6855Z" fill="url(#paint5_linear_825_3018)"/>
<path fill-rule="evenodd" clip-rule="evenodd" d="M6.92578 61.1387C6.65234 61.002 6.51562 60.8652 6.51562 60.7285L5.14844 57.8574L3.78125 60.7285C3.78125 60.8652 3.64453 61.002 3.37109 61.1387L0.5 62.5059L3.37109 63.7363C3.64453 63.873 3.78125 64.0098 3.78125 64.1465L5.14844 67.0176L6.51562 64.1465C6.51562 64.0098 6.65234 63.873 6.92578 63.7363L9.79688 62.5059L6.92578 61.1387Z" fill="url(#paint6_linear_825_3018)"/>
<defs>
<linearGradient id="paint0_linear_825_3018" x1="4.96039" y1="3.23828" x2="10.399" y2="6.33234" gradientUnits="userSpaceOnUse">
<stop stop-color="#D72638"/>
<stop offset="0.644231" stop-color="#7363B7"/>
<stop offset="1" stop-color="#3A86FF"/>
</linearGradient>
<linearGradient id="paint1_linear_825_3018" x1="12.6084" y1="34" x2="65.6582" y2="63.4249" gradientUnits="userSpaceOnUse">
<stop stop-color="#D72638"/>
<stop offset="0.644231" stop-color="#7363B7"/>
<stop offset="1" stop-color="#3A86FF"/>
</linearGradient>
<linearGradient id="paint2_linear_825_3018" x1="62.1803" y1="7.61328" x2="70.7369" y2="12.3016" gradientUnits="userSpaceOnUse">
<stop stop-color="#D72638"/>
<stop offset="0.644231" stop-color="#7363B7"/>
<stop offset="1" stop-color="#3A86FF"/>
</linearGradient>
<linearGradient id="paint3_linear_825_3018" x1="19.4345" y1="38.5801" x2="23.3141" y2="49.5702" gradientUnits="userSpaceOnUse">
<stop stop-color="#D72638"/>
<stop offset="0.644231" stop-color="#7363B7"/>
<stop offset="1" stop-color="#3A86FF"/>
</linearGradient>
<linearGradient id="paint4_linear_825_3018" x1="21.8244" y1="45.8262" x2="26.3929" y2="56.1676" gradientUnits="userSpaceOnUse">
<stop stop-color="#D72638"/>
<stop offset="0.644231" stop-color="#7363B7"/>
<stop offset="1" stop-color="#3A86FF"/>
</linearGradient>
<linearGradient id="paint5_linear_825_3018" x1="61.2885" y1="64.6934" x2="66.7876" y2="67.7507" gradientUnits="userSpaceOnUse">
<stop stop-color="#D72638"/>
<stop offset="0.644231" stop-color="#7363B7"/>
<stop offset="1" stop-color="#3A86FF"/>
</linearGradient>
<linearGradient id="paint6_linear_825_3018" x1="1.47714" y1="62.4375" x2="9.91576" y2="67.1992" gradientUnits="userSpaceOnUse">
<stop stop-color="#D72638"/>
<stop offset="0.644231" stop-color="#7363B7"/>
<stop offset="1" stop-color="#3A86FF"/>
</linearGradient>
</defs>
</svg>
