<svg width="61" height="60" viewBox="0 0 61 60" fill="none" xmlns="http://www.w3.org/2000/svg">
<path d="M9.09577 42.0879L18.4122 51.4043L11.4852 58.3312C9.36284 60.5414 5.54745 60.5413 3.42507 58.3312L2.16882 57.075C-0.0413412 54.9526 -0.0412239 51.1372 2.16882 49.0148L9.09577 42.0879Z" fill="url(#paint0_linear_697_3705)"/>
<path d="M24.2574 45.559L20.8988 48.9176L11.5824 39.6012L14.941 36.2426C17.2109 40.077 20.423 43.2891 24.2574 45.559Z" fill="url(#paint1_linear_697_3705)"/>
<path d="M8.58594 3.16406H7.17969V1.75781C7.17969 0.787031 6.39266 0 5.42188 0C4.45109 0 3.66406 0.787031 3.66406 1.75781V3.16406H2.25781C1.28703 3.16406 0.5 3.95109 0.5 4.92188C0.5 5.89266 1.28703 6.67969 2.25781 6.67969H3.66406V8.08594C3.66406 9.05672 4.45109 9.84375 5.42188 9.84375C6.39266 9.84375 7.17969 9.05672 7.17969 8.08594V6.67969H8.58594C9.55672 6.67969 10.3438 5.89266 10.3438 4.92188C10.3438 3.95109 9.55672 3.16406 8.58594 3.16406Z" fill="url(#paint2_linear_697_3705)"/>
<path d="M54.0547 53.3203H52.6484V51.9141C52.6484 50.9433 51.8614 50.1563 50.8906 50.1563C49.9198 50.1563 49.1328 50.9433 49.1328 51.9141V53.3203H47.7266C46.7558 53.3203 45.9688 54.1073 45.9688 55.0781C45.9688 56.0489 46.7558 56.8359 47.7266 56.8359H49.1328V58.2422C49.1328 59.213 49.9198 60 50.8906 60C51.8614 60 52.6484 59.213 52.6484 58.2422V56.8359H54.0547C55.0255 56.8359 55.8125 56.0489 55.8125 55.0781C55.8125 54.1073 55.0255 53.3203 54.0547 53.3203Z" fill="url(#paint3_linear_697_3705)"/>
<path d="M40.9061 20.2922L45.5866 22.8516L40.9061 25.411C40.612 25.5727 40.3694 25.8153 40.2077 26.1094L37.6483 30.7899L35.0889 26.1094C34.9272 25.8153 34.6846 25.5727 34.3905 25.411L29.71 22.8516L34.3905 20.2922C34.6846 20.1305 34.9272 19.8879 35.0889 19.5938L37.6483 14.9133L40.2077 19.5938C40.3694 19.8879 40.612 20.1305 40.9061 20.2922Z" fill="url(#paint4_linear_697_3705)"/>
<path d="M37.6484 0C25.0484 0 14.7969 10.2516 14.7969 22.8516C14.7969 35.4516 25.0484 45.7031 37.6484 45.7031C50.2484 45.7031 60.5 35.4516 60.5 22.8516C60.5 10.2516 50.2484 0 37.6484 0ZM50.0938 24.3938L43.0449 28.2481L39.1906 35.2969C38.8824 35.8605 38.2906 36.2109 37.6484 36.2109C37.0063 36.2109 36.4145 35.8605 36.1063 35.2969L32.252 28.2481L25.2031 24.3938C24.6395 24.0855 24.2891 23.4938 24.2891 22.8516C24.2891 22.2094 24.6395 21.6176 25.2031 21.3094L32.252 17.4551L36.1063 10.4063C36.4145 9.84258 37.0063 9.49219 37.6484 9.49219C38.2906 9.49219 38.8824 9.84258 39.1906 10.4063L43.0449 17.4551L50.0938 21.3094C50.6574 21.6176 51.0078 22.2094 51.0078 22.8516C51.0078 23.4938 50.6574 24.0855 50.0938 24.3938Z" fill="url(#paint5_linear_697_3705)"/>
<path d="M9.75781 17.8125C10.7286 17.8125 11.5156 17.0255 11.5156 16.0547C11.5156 15.0839 10.7286 14.2969 9.75781 14.2969C8.787 14.2969 8 15.0839 8 16.0547C8 17.0255 8.787 17.8125 9.75781 17.8125Z" fill="url(#paint6_linear_697_3705)"/>
<path d="M4.83594 27.7734C5.80675 27.7734 6.59375 26.9864 6.59375 26.0156C6.59375 25.0448 5.80675 24.2578 4.83594 24.2578C3.86512 24.2578 3.07813 25.0448 3.07813 26.0156C3.07813 26.9864 3.86512 27.7734 4.83594 27.7734Z" fill="url(#paint7_linear_697_3705)"/>
<path d="M35.4219 54.6094C36.3927 54.6094 37.1797 53.8224 37.1797 52.8516C37.1797 51.8808 36.3927 51.0938 35.4219 51.0938C34.4511 51.0938 33.6641 51.8808 33.6641 52.8516C33.6641 53.8224 34.4511 54.6094 35.4219 54.6094Z" fill="url(#paint8_linear_697_3705)"/>
<path d="M58.7422 46.5234C59.713 46.5234 60.5 45.7364 60.5 44.7656C60.5 43.7948 59.713 43.0078 58.7422 43.0078C57.7714 43.0078 56.9844 43.7948 56.9844 44.7656C56.9844 45.7364 57.7714 46.5234 58.7422 46.5234Z" fill="url(#paint9_linear_697_3705)"/>
<defs>
<linearGradient id="paint0_linear_697_3705" x1="6.80623" y1="30" x2="61.654" y2="60.4939" gradientUnits="userSpaceOnUse">
<stop stop-color="#D72638"/>
<stop offset="0.644231" stop-color="#7363B7"/>
<stop offset="1" stop-color="#3A86FF"/>
</linearGradient>
<linearGradient id="paint1_linear_697_3705" x1="6.80623" y1="30" x2="61.654" y2="60.4939" gradientUnits="userSpaceOnUse">
<stop stop-color="#D72638"/>
<stop offset="0.644231" stop-color="#7363B7"/>
<stop offset="1" stop-color="#3A86FF"/>
</linearGradient>
<linearGradient id="paint2_linear_697_3705" x1="6.80623" y1="30" x2="61.654" y2="60.4939" gradientUnits="userSpaceOnUse">
<stop stop-color="#D72638"/>
<stop offset="0.644231" stop-color="#7363B7"/>
<stop offset="1" stop-color="#3A86FF"/>
</linearGradient>
<linearGradient id="paint3_linear_697_3705" x1="6.80623" y1="30" x2="61.654" y2="60.4939" gradientUnits="userSpaceOnUse">
<stop stop-color="#D72638"/>
<stop offset="0.644231" stop-color="#7363B7"/>
<stop offset="1" stop-color="#3A86FF"/>
</linearGradient>
<linearGradient id="paint4_linear_697_3705" x1="6.80623" y1="30" x2="61.654" y2="60.4939" gradientUnits="userSpaceOnUse">
<stop stop-color="#D72638"/>
<stop offset="0.644231" stop-color="#7363B7"/>
<stop offset="1" stop-color="#3A86FF"/>
</linearGradient>
<linearGradient id="paint5_linear_697_3705" x1="6.80623" y1="30" x2="61.654" y2="60.4939" gradientUnits="userSpaceOnUse">
<stop stop-color="#D72638"/>
<stop offset="0.644231" stop-color="#7363B7"/>
<stop offset="1" stop-color="#3A86FF"/>
</linearGradient>
<linearGradient id="paint6_linear_697_3705" x1="6.80623" y1="30" x2="61.654" y2="60.4939" gradientUnits="userSpaceOnUse">
<stop stop-color="#D72638"/>
<stop offset="0.644231" stop-color="#7363B7"/>
<stop offset="1" stop-color="#3A86FF"/>
</linearGradient>
<linearGradient id="paint7_linear_697_3705" x1="6.80623" y1="30" x2="61.654" y2="60.4939" gradientUnits="userSpaceOnUse">
<stop stop-color="#D72638"/>
<stop offset="0.644231" stop-color="#7363B7"/>
<stop offset="1" stop-color="#3A86FF"/>
</linearGradient>
<linearGradient id="paint8_linear_697_3705" x1="6.80623" y1="30" x2="61.654" y2="60.4939" gradientUnits="userSpaceOnUse">
<stop stop-color="#D72638"/>
<stop offset="0.644231" stop-color="#7363B7"/>
<stop offset="1" stop-color="#3A86FF"/>
</linearGradient>
<linearGradient id="paint9_linear_697_3705" x1="6.80623" y1="30" x2="61.654" y2="60.4939" gradientUnits="userSpaceOnUse">
<stop stop-color="#D72638"/>
<stop offset="0.644231" stop-color="#7363B7"/>
<stop offset="1" stop-color="#3A86FF"/>
</linearGradient>
</defs>
</svg>
