<svg width="28" height="27" viewBox="0 0 28 27" fill="none" xmlns="http://www.w3.org/2000/svg">
<path fill-rule="evenodd" clip-rule="evenodd" d="M8.05783 24.5409C9.49315 24.6648 11.3444 24.6666 14 24.6666C16.6555 24.6666 18.5069 24.6648 19.9422 24.5409C21.3486 24.4194 22.1483 24.1937 22.75 23.8628C23.7077 23.3362 24.5031 22.5788 25.0559 21.6666C25.4034 21.0936 25.6404 20.3321 25.7678 18.9925C25.898 17.6256 25.9 15.8625 25.9 13.3333C25.9 10.8042 25.898 9.04109 25.7678 7.67411C25.6404 6.33463 25.4034 5.57307 25.0559 5C24.5031 4.08788 23.7077 3.33045 22.75 2.80384C22.1483 2.47299 21.3486 2.24721 19.9422 2.12581C18.5069 2.00192 16.6555 2 14 2C11.3444 2 9.49315 2.00192 8.05783 2.12581C6.65136 2.24721 5.85172 2.47299 5.25 2.80384C4.29227 3.33045 3.49698 4.08788 2.94405 5C2.59664 5.57307 2.35957 6.33463 2.2321 7.67411C2.10202 9.04109 2.1 10.8042 2.1 13.3333C2.1 15.8625 2.10202 17.6256 2.2321 18.9925C2.35957 20.3321 2.59664 21.0936 2.94405 21.6666C3.49698 22.5788 4.29227 23.3362 5.25 23.8628C5.85172 24.1937 6.65136 24.4194 8.05783 24.5409ZM1.12539 4C0 5.8564 0 8.34872 0 13.3333C0 18.318 0 20.8102 1.12539 22.6666C1.86264 23.8828 2.92303 24.8928 4.2 25.5949C6.14922 26.6666 8.76616 26.6666 14 26.6666C19.2339 26.6666 21.8508 26.6666 23.8 25.5949C25.0769 24.8928 26.1373 23.8828 26.8747 22.6666C28 20.8102 28 18.318 28 13.3333C28 8.34872 28 5.8564 26.8747 4C26.1373 2.78384 25.0769 1.77395 23.8 1.0718C21.8508 -1.19209e-07 19.2339 0 14 0C8.76616 0 6.14922 -1.19209e-07 4.2 1.0718C2.92303 1.77395 1.86264 2.78384 1.12539 4Z" fill="#E4E4E4"/>
<path d="M10.4857 8.71219C10.0757 8.31237 9.41086 8.31237 9.0008 8.71219C8.59075 9.112 8.59075 9.76025 9.0008 10.1601L12.5152 13.5868L9.09982 16.9169C8.68977 17.3167 8.68977 17.965 9.09982 18.3649C9.50988 18.7645 10.1747 18.7645 10.5847 18.3649L14.0001 15.0346L17.4153 18.3647C17.8254 18.7645 18.4902 18.7645 18.9003 18.3647C19.3103 17.9649 19.3103 17.3167 18.9003 16.9169L15.485 13.5868L18.9993 10.1601C19.4093 9.76031 19.4093 9.11206 18.9993 8.71224C18.5892 8.31242 17.9245 8.31242 17.5144 8.71224L14.0001 12.1389L10.4857 8.71219Z" fill="#594747"/>
</svg>
