<svg width="48" height="49" viewBox="0 0 48 49" fill="none" xmlns="http://www.w3.org/2000/svg">
<path d="M24 2C19.5499 2 15.1998 3.3196 11.4997 5.79193C7.79957 8.26427 4.91569 11.7783 3.21272 15.8896C1.50975 20.001 1.06417 24.525 1.93234 28.8895C2.80051 33.2541 4.94343 37.2632 8.09011 40.4099C11.2368 43.5566 15.2459 45.6995 19.6105 46.5677C23.9751 47.4358 28.4991 46.9903 32.6104 45.2873C36.7217 43.5843 40.2357 40.7004 42.7081 37.0003C45.1804 33.3002 46.5 28.9501 46.5 24.5C46.4934 18.5347 44.1208 12.8155 39.9026 8.59738C35.6845 4.37924 29.9654 2.00659 24 2ZM24 44C20.1433 44 16.3731 42.8563 13.1664 40.7137C9.95963 38.571 7.46027 35.5255 5.98436 31.9623C4.50845 28.3992 4.12229 24.4784 4.8747 20.6957C5.62711 16.9131 7.4843 13.4385 10.2114 10.7114C12.9386 7.98429 16.4131 6.1271 20.1957 5.37469C23.9784 4.62228 27.8992 5.00844 31.4623 6.48435C35.0255 7.96026 38.071 10.4596 40.2137 13.6664C42.3564 16.8731 43.5 20.6433 43.5 24.5C43.4941 29.6699 41.4377 34.6263 37.782 38.282C34.1263 41.9377 29.1699 43.994 24 44Z" fill="#594747"/>
<path d="M33 32H15C14.6022 32 14.2206 32.158 13.9393 32.4393C13.658 32.7206 13.5 33.1022 13.5 33.5C13.5 33.8978 13.658 34.2794 13.9393 34.5607C14.2206 34.842 14.6022 35 15 35H33C33.3978 35 33.7794 34.842 34.0607 34.5607C34.342 34.2794 34.5 33.8978 34.5 33.5C34.5 33.1022 34.342 32.7206 34.0607 32.4393C33.7794 32.158 33.3978 32 33 32Z" fill="#594747"/>
<path d="M30 26C30.3978 26 30.7794 25.842 31.0607 25.5607C31.342 25.2794 31.5 24.8978 31.5 24.5C31.5 24.1022 31.342 23.7206 31.0607 23.4393C30.7794 23.158 30.3978 23 30 23H18C17.6022 23 17.2206 23.158 16.9393 23.4393C16.658 23.7206 16.5 24.1022 16.5 24.5C16.5 24.8978 16.658 25.2794 16.9393 25.5607C17.2206 25.842 17.6022 26 18 26H30Z" fill="#594747"/>
<path d="M33 14H15C14.6022 14 14.2206 14.158 13.9393 14.4393C13.658 14.7206 13.5 15.1022 13.5 15.5C13.5 15.8978 13.658 16.2794 13.9393 16.5607C14.2206 16.842 14.6022 17 15 17H33C33.3978 17 33.7794 16.842 34.0607 16.5607C34.342 16.2794 34.5 15.8978 34.5 15.5C34.5 15.1022 34.342 14.7206 34.0607 14.4393C33.7794 14.158 33.3978 14 33 14Z" fill="#594747"/>
</svg>
