<svg width="194" height="64" viewBox="0 0 194 64" fill="none" xmlns="http://www.w3.org/2000/svg">
<mask id="path-1-inside-1_825_2951" fill="white">
<path d="M0 0H194V64H0V0Z"/>
</mask>
<path d="M0 0H194V64H0V0Z" fill="url(#paint0_linear_825_2951)" fill-opacity="0.2"/>
<path d="M0 64H4V0H0H-4V64H0Z" fill="url(#paint1_linear_825_2951)" mask="url(#path-1-inside-1_825_2951)"/>
<path d="M10.92 46V18H28.56V21.92H15.24V29.96H27.44V33.88H15.24V42.08H28.76V46H10.92ZM33.3838 46V26.28H37.4238V29.24H38.0638C38.4371 28.44 39.1038 27.6933 40.0638 27C41.0238 26.3067 42.4504 25.96 44.3438 25.96C45.8371 25.96 47.1571 26.2933 48.3038 26.96C49.4771 27.6267 50.3971 28.5733 51.0638 29.8C51.7304 31 52.0638 32.4533 52.0638 34.16V46H47.9438V34.48C47.9438 32.7733 47.5171 31.52 46.6638 30.72C45.8104 29.8933 44.6371 29.48 43.1438 29.48C41.4371 29.48 40.0638 30.04 39.0238 31.16C38.0104 32.28 37.5038 33.9067 37.5038 36.04V46H33.3838ZM73.4331 54V43.32H72.7931C72.4998 43.8533 72.0731 44.3733 71.5131 44.88C70.9531 45.36 70.2331 45.76 69.3531 46.08C68.4998 46.4 67.4331 46.56 66.1531 46.56C64.4998 46.56 62.9798 46.16 61.5931 45.36C60.2065 44.56 59.0998 43.4133 58.2731 41.92C57.4465 40.4 57.0331 38.5733 57.0331 36.44V35.84C57.0331 33.7067 57.4465 31.8933 58.2731 30.4C59.1265 28.88 60.2465 27.72 61.6331 26.92C63.0198 26.12 64.5265 25.72 66.1531 25.72C68.0731 25.72 69.5398 26.0667 70.5531 26.76C71.5931 27.4533 72.3665 28.24 72.8731 29.12H73.5131V26.28H77.5531V54H73.4331ZM67.3131 42.96C69.1265 42.96 70.6065 42.3867 71.7531 41.24C72.8998 40.0933 73.4731 38.4533 73.4731 36.32V35.96C73.4731 33.8533 72.8865 32.2267 71.7131 31.08C70.5665 29.9333 69.0998 29.36 67.3131 29.36C65.5531 29.36 64.0865 29.9333 62.9131 31.08C61.7665 32.2267 61.1931 33.8533 61.1931 35.96V36.32C61.1931 38.4533 61.7665 40.0933 62.9131 41.24C64.0865 42.3867 65.5531 42.96 67.3131 42.96ZM91.1781 46.36C89.6848 46.36 88.3515 46.0267 87.1781 45.36C86.0048 44.6933 85.0848 43.7467 84.4181 42.52C83.7515 41.2933 83.4181 39.8267 83.4181 38.12V26.28H87.5381V37.84C87.5381 39.5467 87.9648 40.8133 88.8181 41.64C89.6715 42.44 90.8581 42.84 92.3781 42.84C94.0581 42.84 95.4048 42.28 96.4181 41.16C97.4581 40.0133 97.9781 38.3733 97.9781 36.24V26.28H102.098V46H98.0581V43.04H97.4181C97.0448 43.84 96.3781 44.6 95.4181 45.32C94.4581 46.0133 93.0448 46.36 91.1781 46.36ZM108.188 46V26.28H112.308V46H108.188ZM110.268 23.6C109.468 23.6 108.788 23.3467 108.228 22.84C107.695 22.3067 107.428 21.6267 107.428 20.8C107.428 19.9733 107.695 19.3067 108.228 18.8C108.788 18.2667 109.468 18 110.268 18C111.095 18 111.775 18.2667 112.308 18.8C112.842 19.3067 113.108 19.9733 113.108 20.8C113.108 21.6267 112.842 22.3067 112.308 22.84C111.775 23.3467 111.095 23.6 110.268 23.6ZM118.423 46V26.28H122.463V28.6H123.103C123.423 27.7733 123.929 27.1733 124.623 26.8C125.343 26.4 126.223 26.2 127.263 26.2H129.623V29.92H127.103C125.769 29.92 124.676 30.2933 123.823 31.04C122.969 31.76 122.543 32.88 122.543 34.4V46H118.423ZM133.892 46V26.28H138.012V46H133.892ZM135.972 23.6C135.172 23.6 134.492 23.3467 133.932 22.84C133.398 22.3067 133.132 21.6267 133.132 20.8C133.132 19.9733 133.398 19.3067 133.932 18.8C134.492 18.2667 135.172 18 135.972 18C136.798 18 137.478 18.2667 138.012 18.8C138.545 19.3067 138.812 19.9733 138.812 20.8C138.812 21.6267 138.545 22.3067 138.012 22.84C137.478 23.3467 136.798 23.6 135.972 23.6ZM153.166 46.56C151.166 46.56 149.419 46.1467 147.926 45.32C146.433 44.4667 145.259 43.28 144.406 41.76C143.579 40.2133 143.166 38.4267 143.166 36.4V35.92C143.166 33.8667 143.579 32.08 144.406 30.56C145.233 29.0133 146.379 27.8267 147.846 27C149.339 26.1467 151.059 25.72 153.006 25.72C154.899 25.72 156.553 26.1467 157.966 27C159.406 27.8267 160.526 28.9867 161.326 30.48C162.126 31.9733 162.526 33.72 162.526 35.72V37.28H147.366C147.419 39.0133 147.993 40.4 149.086 41.44C150.206 42.4533 151.593 42.96 153.246 42.96C154.793 42.96 155.953 42.6133 156.726 41.92C157.526 41.2267 158.139 40.4267 158.566 39.52L161.966 41.28C161.593 42.0267 161.046 42.8133 160.326 43.64C159.633 44.4667 158.713 45.16 157.566 45.72C156.419 46.28 154.953 46.56 153.166 46.56ZM147.406 34.12H158.326C158.219 32.6267 157.686 31.4667 156.726 30.64C155.766 29.7867 154.513 29.36 152.966 29.36C151.419 29.36 150.153 29.7867 149.166 30.64C148.206 31.4667 147.619 32.6267 147.406 34.12ZM175.565 46.56C173.059 46.56 170.979 46 169.325 44.88C167.672 43.76 166.659 42.0667 166.285 39.8L170.125 38.88C170.339 39.9733 170.699 40.84 171.205 41.48C171.712 42.12 172.339 42.5733 173.085 42.84C173.859 43.1067 174.685 43.24 175.565 43.24C176.872 43.24 177.872 42.9867 178.565 42.48C179.285 41.9733 179.645 41.32 179.645 40.52C179.645 39.72 179.312 39.1333 178.645 38.76C177.979 38.3867 176.992 38.08 175.685 37.84L174.325 37.6C172.992 37.36 171.779 37.0133 170.685 36.56C169.592 36.1067 168.725 35.48 168.085 34.68C167.445 33.88 167.125 32.8533 167.125 31.6C167.125 29.7333 167.819 28.2933 169.205 27.28C170.592 26.24 172.432 25.72 174.725 25.72C176.939 25.72 178.752 26.2267 180.165 27.24C181.605 28.2267 182.539 29.5733 182.965 31.28L179.125 32.36C178.885 31.16 178.379 30.32 177.605 29.84C176.832 29.3333 175.872 29.08 174.725 29.08C173.605 29.08 172.725 29.2933 172.085 29.72C171.445 30.12 171.125 30.6933 171.125 31.44C171.125 32.24 171.432 32.8267 172.045 33.2C172.685 33.5733 173.539 33.8533 174.605 34.04L176.005 34.28C177.419 34.52 178.712 34.8533 179.885 35.28C181.059 35.7067 181.979 36.32 182.645 37.12C183.339 37.92 183.685 38.9867 183.685 40.32C183.685 42.2933 182.952 43.8267 181.485 44.92C180.019 46.0133 178.045 46.56 175.565 46.56Z" fill="url(#paint2_linear_825_2951)"/>
<defs>
<linearGradient id="paint0_linear_825_2951" x1="20.3901" y1="32" x2="80.8446" y2="133.884" gradientUnits="userSpaceOnUse">
<stop stop-color="#D72638"/>
<stop offset="0.644231" stop-color="#7363B7" stop-opacity="0.2"/>
<stop offset="1" stop-color="#3A86FF" stop-opacity="0.2"/>
</linearGradient>
<linearGradient id="paint1_linear_825_2951" x1="-18.9268" y1="16.3903" x2="50.3554" y2="134.127" gradientUnits="userSpaceOnUse">
<stop stop-color="#D72638"/>
<stop offset="1" stop-color="#3A86FF"/>
</linearGradient>
<linearGradient id="paint2_linear_825_2951" x1="-9.36587" y1="20.2927" x2="37.0719" y2="116.835" gradientUnits="userSpaceOnUse">
<stop stop-color="#D72638"/>
<stop offset="1" stop-color="#3A86FF"/>
</linearGradient>
</defs>
</svg>
