<svg width="171" height="64" viewBox="0 0 171 64" fill="none" xmlns="http://www.w3.org/2000/svg">
<mask id="path-1-inside-1_825_2946" fill="white">
<path d="M0 0H171V64H0V0Z"/>
</mask>
<path d="M0 0H171V64H0V0Z" fill="url(#paint0_linear_825_2946)" fill-opacity="0.2"/>
<path d="M0 64H4V0H0H-4V64H0Z" fill="url(#paint1_linear_825_2946)" mask="url(#path-1-inside-1_825_2946)"/>
<path d="M10.92 46V18H15.24V46H10.92ZM21.1963 46V26.28H25.2363V29.24H25.8763C26.2496 28.44 26.9163 27.6933 27.8763 27C28.8363 26.3067 30.2629 25.96 32.1563 25.96C33.6496 25.96 34.9696 26.2933 36.1163 26.96C37.2896 27.6267 38.2096 28.5733 38.8763 29.8C39.5429 31 39.8763 32.4533 39.8763 34.16V46H35.7563V34.48C35.7563 32.7733 35.3296 31.52 34.4763 30.72C33.6229 29.8933 32.4496 29.48 30.9563 29.48C29.2496 29.48 27.8763 30.04 26.8363 31.16C25.8229 32.28 25.3163 33.9067 25.3163 36.04V46H21.1963ZM53.8856 46.56C51.379 46.56 49.299 46 47.6456 44.88C45.9923 43.76 44.979 42.0667 44.6056 39.8L48.4456 38.88C48.659 39.9733 49.019 40.84 49.5256 41.48C50.0323 42.12 50.659 42.5733 51.4056 42.84C52.179 43.1067 53.0056 43.24 53.8856 43.24C55.1923 43.24 56.1923 42.9867 56.8856 42.48C57.6056 41.9733 57.9656 41.32 57.9656 40.52C57.9656 39.72 57.6323 39.1333 56.9656 38.76C56.299 38.3867 55.3123 38.08 54.0056 37.84L52.6456 37.6C51.3123 37.36 50.099 37.0133 49.0056 36.56C47.9123 36.1067 47.0456 35.48 46.4056 34.68C45.7656 33.88 45.4456 32.8533 45.4456 31.6C45.4456 29.7333 46.139 28.2933 47.5256 27.28C48.9123 26.24 50.7523 25.72 53.0456 25.72C55.259 25.72 57.0723 26.2267 58.4856 27.24C59.9256 28.2267 60.859 29.5733 61.2856 31.28L57.4456 32.36C57.2056 31.16 56.699 30.32 55.9256 29.84C55.1523 29.3333 54.1923 29.08 53.0456 29.08C51.9256 29.08 51.0456 29.2933 50.4056 29.72C49.7656 30.12 49.4456 30.6933 49.4456 31.44C49.4456 32.24 49.7523 32.8267 50.3656 33.2C51.0056 33.5733 51.859 33.8533 52.9256 34.04L54.3256 34.28C55.739 34.52 57.0323 34.8533 58.2056 35.28C59.379 35.7067 60.299 36.32 60.9656 37.12C61.659 37.92 62.0056 38.9867 62.0056 40.32C62.0056 42.2933 61.2723 43.8267 59.8056 44.92C58.339 46.0133 56.3656 46.56 53.8856 46.56ZM66.8213 46V26.28H70.9413V46H66.8213ZM68.9013 23.6C68.1013 23.6 67.4213 23.3467 66.8613 22.84C66.3279 22.3067 66.0613 21.6267 66.0613 20.8C66.0613 19.9733 66.3279 19.3067 66.8613 18.8C67.4213 18.2667 68.1013 18 68.9013 18C69.7279 18 70.4079 18.2667 70.9413 18.8C71.4746 19.3067 71.7413 19.9733 71.7413 20.8C71.7413 21.6267 71.4746 22.3067 70.9413 22.84C70.4079 23.3467 69.7279 23.6 68.9013 23.6ZM76.0956 36.24V35.64C76.0956 33.56 76.509 31.7867 77.3356 30.32C78.189 28.8533 79.309 27.72 80.6956 26.92C82.0823 26.12 83.6023 25.72 85.2556 25.72C87.1756 25.72 88.6423 26.08 89.6556 26.8C90.6956 27.52 91.4556 28.2933 91.9356 29.12H92.5756V26.28H96.5756V50.04C96.5756 51.24 96.2156 52.2 95.4956 52.92C94.8023 53.64 93.8423 54 92.6156 54H79.3356V50.4H91.3356C92.109 50.4 92.4956 50 92.4956 49.2V42.92H91.8556C91.5623 43.4 91.149 43.8933 90.6156 44.4C90.0823 44.9067 89.3756 45.32 88.4956 45.64C87.6423 45.96 86.5623 46.12 85.2556 46.12C83.6023 46.12 82.069 45.7333 80.6556 44.96C79.269 44.16 78.1623 43.0267 77.3356 41.56C76.509 40.0667 76.0956 38.2933 76.0956 36.24ZM86.3756 42.52C88.1623 42.52 89.629 41.96 90.7756 40.84C91.949 39.6933 92.5356 38.12 92.5356 36.12V35.76C92.5356 33.7067 91.9623 32.1333 90.8156 31.04C89.669 29.92 88.189 29.36 86.3756 29.36C84.6156 29.36 83.149 29.92 81.9756 31.04C80.829 32.1333 80.2556 33.7067 80.2556 35.76V36.12C80.2556 38.12 80.829 39.6933 81.9756 40.84C83.149 41.96 84.6156 42.52 86.3756 42.52ZM102.642 46V18H106.762V29.08H107.402C107.668 28.5733 108.042 28.08 108.522 27.6C109.028 27.12 109.682 26.7333 110.482 26.44C111.308 26.12 112.348 25.96 113.602 25.96C115.095 25.96 116.415 26.2933 117.562 26.96C118.735 27.6267 119.655 28.5733 120.322 29.8C120.988 31 121.322 32.4533 121.322 34.16V46H117.202V34.48C117.202 32.7733 116.775 31.52 115.922 30.72C115.068 29.8933 113.895 29.48 112.402 29.48C110.695 29.48 109.322 30.04 108.282 31.16C107.268 32.28 106.762 33.9067 106.762 36.04V46H102.642ZM134.104 46C132.904 46 131.944 45.64 131.224 44.92C130.531 44.2 130.184 43.24 130.184 42.04V29.76H124.744V26.28H130.184V19.76H134.304V26.28H140.184V29.76H134.304V41.32C134.304 42.12 134.677 42.52 135.424 42.52H139.544V46H134.104ZM153.104 46.56C150.598 46.56 148.518 46 146.864 44.88C145.211 43.76 144.198 42.0667 143.824 39.8L147.664 38.88C147.878 39.9733 148.238 40.84 148.744 41.48C149.251 42.12 149.878 42.5733 150.624 42.84C151.398 43.1067 152.224 43.24 153.104 43.24C154.411 43.24 155.411 42.9867 156.104 42.48C156.824 41.9733 157.184 41.32 157.184 40.52C157.184 39.72 156.851 39.1333 156.184 38.76C155.518 38.3867 154.531 38.08 153.224 37.84L151.864 37.6C150.531 37.36 149.318 37.0133 148.224 36.56C147.131 36.1067 146.264 35.48 145.624 34.68C144.984 33.88 144.664 32.8533 144.664 31.6C144.664 29.7333 145.358 28.2933 146.744 27.28C148.131 26.24 149.971 25.72 152.264 25.72C154.478 25.72 156.291 26.2267 157.704 27.24C159.144 28.2267 160.078 29.5733 160.504 31.28L156.664 32.36C156.424 31.16 155.918 30.32 155.144 29.84C154.371 29.3333 153.411 29.08 152.264 29.08C151.144 29.08 150.264 29.2933 149.624 29.72C148.984 30.12 148.664 30.6933 148.664 31.44C148.664 32.24 148.971 32.8267 149.584 33.2C150.224 33.5733 151.078 33.8533 152.144 34.04L153.544 34.28C154.958 34.52 156.251 34.8533 157.424 35.28C158.598 35.7067 159.518 36.32 160.184 37.12C160.878 37.92 161.224 38.9867 161.224 40.32C161.224 42.2933 160.491 43.8267 159.024 44.92C157.558 46.0133 155.584 46.56 153.104 46.56Z" fill="url(#paint2_linear_825_2946)"/>
<defs>
<linearGradient id="paint0_linear_825_2946" x1="17.9728" y1="32" x2="81.7877" y2="126.797" gradientUnits="userSpaceOnUse">
<stop stop-color="#D72638"/>
<stop offset="0.644231" stop-color="#7363B7" stop-opacity="0.2"/>
<stop offset="1" stop-color="#3A86FF" stop-opacity="0.2"/>
</linearGradient>
<linearGradient id="paint1_linear_825_2946" x1="-16.6829" y1="16.3903" x2="56.5129" y2="126.031" gradientUnits="userSpaceOnUse">
<stop stop-color="#D72638"/>
<stop offset="1" stop-color="#3A86FF"/>
</linearGradient>
<linearGradient id="paint2_linear_825_2946" x1="-7.12196" y1="20.2927" x2="43.1927" y2="111.379" gradientUnits="userSpaceOnUse">
<stop stop-color="#D72638"/>
<stop offset="1" stop-color="#3A86FF"/>
</linearGradient>
</defs>
</svg>
