<svg width="178" height="64" viewBox="0 0 178 64" fill="none" xmlns="http://www.w3.org/2000/svg">
<mask id="path-1-inside-1_816_3042" fill="white">
<path d="M0 0H178V64H0V0Z"/>
</mask>
<path d="M0 0H178V64H0V0Z" fill="url(#paint0_linear_816_3042)" fill-opacity="0.2"/>
<path d="M0 64H4V0H0H-4V64H0Z" fill="url(#paint1_linear_816_3042)" mask="url(#path-1-inside-1_816_3042)"/>
<path d="M21.4 46.56C19.1867 46.56 17.28 46.16 15.68 45.36C14.1067 44.56 12.88 43.4133 12 41.92C11.1467 40.4 10.72 38.56 10.72 36.4V18H15.08V36.52C15.08 38.4933 15.6267 40.0133 16.72 41.08C17.8133 42.1467 19.3733 42.68 21.4 42.68C23.4267 42.68 24.9867 42.1467 26.08 41.08C27.1733 40.0133 27.72 38.4933 27.72 36.52V18H32.04V36.4C32.04 38.56 31.6133 40.4 30.76 41.92C29.9067 43.4133 28.68 44.56 27.08 45.36C25.48 46.16 23.5867 46.56 21.4 46.56ZM37.7978 54V26.28H41.8378V29.12H42.4778C42.9845 28.24 43.7445 27.4533 44.7578 26.76C45.7978 26.0667 47.2778 25.72 49.1978 25.72C50.8511 25.72 52.3578 26.12 53.7178 26.92C55.1045 27.72 56.2111 28.88 57.0378 30.4C57.8911 31.8933 58.3178 33.7067 58.3178 35.84V36.44C58.3178 38.5733 57.9045 40.4 57.0778 41.92C56.2511 43.4133 55.1445 44.56 53.7578 45.36C52.3711 46.16 50.8511 46.56 49.1978 46.56C47.9178 46.56 46.8378 46.4 45.9578 46.08C45.0778 45.76 44.3711 45.36 43.8378 44.88C43.3045 44.3733 42.8778 43.8533 42.5578 43.32H41.9178V54H37.7978ZM47.9978 42.96C49.8111 42.96 51.2911 42.3867 52.4378 41.24C53.5845 40.0933 54.1578 38.4533 54.1578 36.32V35.96C54.1578 33.8533 53.5711 32.2267 52.3978 31.08C51.2511 29.9333 49.7845 29.36 47.9978 29.36C46.2378 29.36 44.7711 29.9333 43.5978 31.08C42.4511 32.2267 41.8778 33.8533 41.8778 35.96V36.32C41.8778 38.4533 42.4511 40.0933 43.5978 41.24C44.7711 42.3867 46.2378 42.96 47.9978 42.96ZM71.5828 46.56C69.9561 46.56 68.4495 46.16 67.0628 45.36C65.6761 44.56 64.5561 43.4133 63.7028 41.92C62.8761 40.4 62.4628 38.5733 62.4628 36.44V35.84C62.4628 33.7333 62.8761 31.92 63.7028 30.4C64.5295 28.88 65.6361 27.72 67.0228 26.92C68.4095 26.12 69.9295 25.72 71.5828 25.72C72.8628 25.72 73.9295 25.88 74.7828 26.2C75.6628 26.52 76.3828 26.9333 76.9428 27.44C77.5028 27.92 77.9295 28.4267 78.2228 28.96H78.8628V18H82.9828V46H78.9428V43.2H78.3028C77.7961 44.0533 77.0228 44.8267 75.9828 45.52C74.9695 46.2133 73.5028 46.56 71.5828 46.56ZM72.7428 42.96C74.5295 42.96 75.9961 42.3867 77.1428 41.24C78.3161 40.0933 78.9028 38.4533 78.9028 36.32V35.96C78.9028 33.8533 78.3295 32.2267 77.1828 31.08C76.0361 29.9333 74.5561 29.36 72.7428 29.36C70.9828 29.36 69.5161 29.9333 68.3428 31.08C67.1961 32.2267 66.6228 33.8533 66.6228 35.96V36.32C66.6228 38.4533 67.1961 40.0933 68.3428 41.24C69.5161 42.3867 70.9828 42.96 72.7428 42.96ZM95.1678 46.56C93.7545 46.56 92.4878 46.32 91.3678 45.84C90.2745 45.36 89.3945 44.6533 88.7278 43.72C88.0878 42.7867 87.7678 41.6533 87.7678 40.32C87.7678 38.96 88.0878 37.84 88.7278 36.96C89.3945 36.0533 90.2878 35.3733 91.4078 34.92C92.5545 34.4667 93.8478 34.24 95.2878 34.24H101.288V32.96C101.288 31.8133 100.941 30.8933 100.248 30.2C99.5545 29.5067 98.4878 29.16 97.0478 29.16C95.6345 29.16 94.5545 29.4933 93.8078 30.16C93.0611 30.8267 92.5678 31.6933 92.3278 32.76L88.4878 31.52C88.8078 30.4533 89.3145 29.4933 90.0078 28.64C90.7278 27.76 91.6745 27.0533 92.8478 26.52C94.0211 25.9867 95.4345 25.72 97.0878 25.72C99.6478 25.72 101.661 26.3733 103.128 27.68C104.594 28.9867 105.328 30.84 105.328 33.24V41.36C105.328 42.16 105.701 42.56 106.448 42.56H108.128V46H105.048C104.114 46 103.354 45.76 102.768 45.28C102.181 44.8 101.888 44.1467 101.888 43.32V43.2H101.288C101.074 43.6 100.754 44.0667 100.328 44.6C99.9011 45.1333 99.2745 45.6 98.4478 46C97.6211 46.3733 96.5278 46.56 95.1678 46.56ZM95.7678 43.16C97.4211 43.16 98.7545 42.6933 99.7678 41.76C100.781 40.8 101.288 39.4933 101.288 37.84V37.44H95.5278C94.4345 37.44 93.5545 37.68 92.8878 38.16C92.2211 38.6133 91.8878 39.2933 91.8878 40.2C91.8878 41.1067 92.2345 41.8267 92.9278 42.36C93.6211 42.8933 94.5678 43.16 95.7678 43.16ZM118.167 46C116.967 46 116.007 45.64 115.287 44.92C114.593 44.2 114.247 43.24 114.247 42.04V29.76H108.807V26.28H114.247V19.76H118.367V26.28H124.247V29.76H118.367V41.32C118.367 42.12 118.74 42.52 119.487 42.52H123.607V46H118.167ZM137.424 46.56C135.424 46.56 133.677 46.1467 132.184 45.32C130.69 44.4667 129.517 43.28 128.664 41.76C127.837 40.2133 127.424 38.4267 127.424 36.4V35.92C127.424 33.8667 127.837 32.08 128.664 30.56C129.49 29.0133 130.637 27.8267 132.104 27C133.597 26.1467 135.317 25.72 137.264 25.72C139.157 25.72 140.81 26.1467 142.224 27C143.664 27.8267 144.784 28.9867 145.584 30.48C146.384 31.9733 146.784 33.72 146.784 35.72V37.28H131.624C131.677 39.0133 132.25 40.4 133.344 41.44C134.464 42.4533 135.85 42.96 137.504 42.96C139.05 42.96 140.21 42.6133 140.984 41.92C141.784 41.2267 142.397 40.4267 142.824 39.52L146.224 41.28C145.85 42.0267 145.304 42.8133 144.584 43.64C143.89 44.4667 142.97 45.16 141.824 45.72C140.677 46.28 139.21 46.56 137.424 46.56ZM131.664 34.12H142.584C142.477 32.6267 141.944 31.4667 140.984 30.64C140.024 29.7867 138.77 29.36 137.224 29.36C135.677 29.36 134.41 29.7867 133.424 30.64C132.464 31.4667 131.877 32.6267 131.664 34.12ZM159.823 46.56C157.316 46.56 155.236 46 153.583 44.88C151.93 43.76 150.916 42.0667 150.543 39.8L154.383 38.88C154.596 39.9733 154.956 40.84 155.463 41.48C155.97 42.12 156.596 42.5733 157.343 42.84C158.116 43.1067 158.943 43.24 159.823 43.24C161.13 43.24 162.13 42.9867 162.823 42.48C163.543 41.9733 163.903 41.32 163.903 40.52C163.903 39.72 163.57 39.1333 162.903 38.76C162.236 38.3867 161.25 38.08 159.943 37.84L158.583 37.6C157.25 37.36 156.036 37.0133 154.943 36.56C153.85 36.1067 152.983 35.48 152.343 34.68C151.703 33.88 151.383 32.8533 151.383 31.6C151.383 29.7333 152.076 28.2933 153.463 27.28C154.85 26.24 156.69 25.72 158.983 25.72C161.196 25.72 163.01 26.2267 164.423 27.24C165.863 28.2267 166.796 29.5733 167.223 31.28L163.383 32.36C163.143 31.16 162.636 30.32 161.863 29.84C161.09 29.3333 160.13 29.08 158.983 29.08C157.863 29.08 156.983 29.2933 156.343 29.72C155.703 30.12 155.383 30.6933 155.383 31.44C155.383 32.24 155.69 32.8267 156.303 33.2C156.943 33.5733 157.796 33.8533 158.863 34.04L160.263 34.28C161.676 34.52 162.97 34.8533 164.143 35.28C165.316 35.7067 166.236 36.32 166.903 37.12C167.596 37.92 167.943 38.9867 167.943 40.32C167.943 42.2933 167.21 43.8267 165.743 44.92C164.276 46.0133 162.303 46.56 159.823 46.56Z" fill="url(#paint2_linear_816_3042)"/>
<defs>
<linearGradient id="paint0_linear_816_3042" x1="18.7085" y1="32" x2="81.5242" y2="129.132" gradientUnits="userSpaceOnUse">
<stop stop-color="#D72638"/>
<stop offset="0.644231" stop-color="#7363B7" stop-opacity="0.2"/>
<stop offset="1" stop-color="#3A86FF" stop-opacity="0.2"/>
</linearGradient>
<linearGradient id="paint1_linear_816_3042" x1="-17.3659" y1="16.3903" x2="54.6637" y2="128.701" gradientUnits="userSpaceOnUse">
<stop stop-color="#D72638"/>
<stop offset="1" stop-color="#3A86FF"/>
</linearGradient>
<linearGradient id="paint2_linear_816_3042" x1="-7.80489" y1="20.2927" x2="41.3065" y2="113.216" gradientUnits="userSpaceOnUse">
<stop stop-color="#D72638"/>
<stop offset="1" stop-color="#3A86FF"/>
</linearGradient>
</defs>
</svg>
