<svg width="145" height="75" viewBox="0 0 145 75" fill="none" xmlns="http://www.w3.org/2000/svg">
<path d="M37.5 72C56.5538 72 72 56.5538 72 37.5C72 18.4462 56.5538 3 37.5 3C18.4462 3 3 18.4462 3 37.5C3 56.5538 18.4462 72 37.5 72Z" fill="url(#paint0_linear_1031_3574)" fill-opacity="0.5"/>
<path d="M62.7661 23.1C62.7679 23.0809 62.7642 23.0617 62.7556 23.0445C62.7449 23.0076 62.7303 22.9719 62.7121 22.938C62.6919 22.9034 62.6672 22.8716 62.6386 22.8435L62.5951 22.8045C62.5805 22.7927 62.565 22.7821 62.5486 22.773L54.3226 18.03L54.2251 17.973L45.7576 13.0905L45.6211 13.011L37.7221 8.45251C37.6527 8.41611 37.5754 8.39709 37.4971 8.39709C37.4187 8.39709 37.3415 8.41611 37.2721 8.45251L29.3716 13.011L29.2111 13.104L20.7706 17.9745L20.6716 18.0315L12.4501 22.7775C12.4337 22.7866 12.4181 22.7972 12.4036 22.809L12.3601 22.848C12.3315 22.8761 12.3068 22.9079 12.2866 22.9425C12.2684 22.9764 12.2538 23.0121 12.2431 23.049C12.2446 23.0681 12.2409 23.0873 12.2326 23.1045C12.2311 23.1255 12.2311 23.1465 12.2326 23.1675V51.8175C12.2328 51.8948 12.253 51.9708 12.2911 52.038C12.3289 52.1051 12.3838 52.1609 12.4501 52.2L37.2301 66.5145L37.2751 66.5401L37.3021 66.555C37.3113 66.5611 37.3214 66.5656 37.3321 66.5686C37.3488 66.5763 37.3664 66.5818 37.3846 66.5851C37.4041 66.5912 37.4242 66.5952 37.4446 66.5971H37.5571C37.6144 66.5845 37.6702 66.5658 37.7236 66.5415L62.5501 52.2225C62.619 52.1835 62.6761 52.1265 62.7151 52.0575C62.7545 51.9891 62.7752 51.9115 62.7751 51.8325V23.1675C62.7744 23.1448 62.7714 23.1221 62.7661 23.1ZM20.5021 55.8225L13.1221 51.5625V43.05L20.5021 47.313V55.8225ZM20.5021 46.2615L13.1221 42V33.5025L20.5021 37.761V46.2615ZM20.5021 36.7215L13.1221 32.463V23.9475L20.5021 28.2V36.7215ZM28.7671 60.6L21.3736 56.331C21.3856 56.2897 21.3902 56.2465 21.3871 56.2035V47.817L28.7671 52.08V60.6ZM28.7671 51.036L21.3871 46.77V38.271L28.7671 42.5295V51.036ZM28.7671 41.496L21.3871 37.23V28.716L28.7671 32.9745V41.496ZM37.0501 65.3731L29.6611 61.1101C29.6641 61.0877 29.6641 61.0649 29.6611 61.0425V52.599L37.0501 56.862V65.3731ZM37.0501 55.8L29.6701 51.5415V43.05L37.0501 47.307V55.8ZM37.0501 46.26L29.6671 42V33.4935L37.0501 37.752V46.26ZM37.5001 36.975L30.1171 32.712L29.2171 32.1945L21.8236 27.9255L20.9386 27.414L13.5676 23.1645L20.9521 18.9L21.8521 18.3795L29.5201 13.95L30.4201 13.4325L37.5001 9.35251L44.5741 13.4355L45.4741 13.953L53.1496 18.3825L54.0496 18.903L61.4341 23.1645L54.0571 27.4215L46.7596 23.1L45.8716 22.575L38.3716 18.1395L37.5001 17.6265L36.6121 18.1515L29.1286 22.581L28.2286 23.109L29.1181 23.622L36.6001 27.9375L37.5001 28.4565L44.8831 32.7195L37.5001 36.975ZM45.8686 23.616L53.1646 27.93L45.7921 32.187L38.4001 27.933L45.8686 23.616ZM37.5001 27.408L30.0136 23.085L37.5001 18.6705L44.9776 23.1L37.5001 27.408ZM46.2211 42.5295L53.5861 38.28V46.785L46.2211 51.039V42.5295ZM46.2211 41.49V32.9745L53.5861 28.725V37.2405L46.2211 41.49ZM61.8661 51.5625L54.4861 55.8225L53.5861 56.3415L46.2271 60.6L45.3271 61.116L37.9501 65.3731V37.752L45.3301 33.4935V52.599L46.2301 52.08L53.5951 47.826L54.4951 47.3055L61.8721 43.05L61.8661 51.5625ZM61.8661 42.003L54.4861 46.266V37.761L61.8661 33.5025V42.003ZM61.8661 32.463L54.4861 36.7215V28.2L61.8661 23.9415V32.463Z" fill="#1F1F1F"/>
<path d="M61.4264 23.1645L54.0539 27.4215L46.7594 23.1075L45.8714 22.5825L38.3714 18.147L37.4999 17.6265L36.6089 18.15L29.1254 22.5795L28.2314 23.1L29.1209 23.613L36.5999 27.9375L37.4999 28.4565L44.8829 32.7195L37.4999 36.9825L30.1169 32.7195L29.2169 32.202L21.8249 27.933L20.9399 27.4215L13.5674 23.1645L20.9519 18.9L21.8519 18.3795L29.5184 13.9545L30.4184 13.437L37.4999 9.35254L44.5739 13.4355L45.4739 13.953L53.1494 18.3825L54.0494 18.903L61.4264 23.1645Z" fill="url(#paint1_linear_1031_3574)"/>
<path d="M61.8722 43.05V51.57L54.4922 55.83L53.5922 56.349L46.2272 60.6L45.3272 61.116L37.9502 65.373V37.752L45.3302 33.4935V52.599L46.2302 52.08L53.5952 47.826L54.4952 47.3055L61.8722 43.05Z" fill="#D72638"/>
<path d="M37.7202 66.5475C37.669 66.577 37.6124 66.5958 37.5537 66.6029C37.611 66.5903 37.6668 66.5718 37.7202 66.5475Z" fill="#1F1F1F"/>
<path d="M20.7709 17.9745L20.6719 18.0314C20.7024 18.0084 20.7356 17.9893 20.7709 17.9745Z" fill="#1F1F1F"/>
<path d="M29.3714 13.011L29.2109 13.104C29.2574 13.0622 29.3121 13.0305 29.3714 13.011Z" fill="#1F1F1F"/>
<path d="M54.3211 18.0314L54.2236 17.9745C54.2587 17.9887 54.2915 18.0079 54.3211 18.0314Z" fill="#1F1F1F"/>
<path d="M45.7498 13.089L45.6133 13.0095C45.6635 13.027 45.7098 13.054 45.7498 13.089Z" fill="#1F1F1F"/>
<path d="M141.22 35C140.607 35 140.135 34.8946 139.806 34.684C139.476 34.4734 139.233 34.2399 139.078 33.9835L138.83 33.9835L138.83 34.8076L137.127 34.8076L137.127 25.1923L138.858 25.1923L138.858 28.7774L139.105 28.7774C139.206 28.6126 139.339 28.4569 139.503 28.3104C139.677 28.1639 139.902 28.0448 140.176 27.9533C140.46 27.8525 140.808 27.8022 141.22 27.8022C141.77 27.8022 142.278 27.9395 142.745 28.2142C143.212 28.4798 143.588 28.8736 143.872 29.3956C144.155 29.9175 144.297 30.5494 144.297 31.2912L144.297 31.5109C144.297 32.2527 144.155 32.8846 143.872 33.4065C143.588 33.9285 143.212 34.3269 142.745 34.6016C142.278 34.8672 141.77 35 141.22 35ZM140.698 33.489C141.23 33.489 141.674 33.3196 142.031 32.9807C142.388 32.6327 142.567 32.1291 142.567 31.4697L142.567 31.3324C142.567 30.673 142.388 30.1739 142.031 29.8351C141.683 29.4871 141.239 29.3131 140.698 29.3131C140.167 29.3131 139.723 29.4871 139.366 29.8351C139.009 30.1739 138.83 30.673 138.83 31.3324L138.83 31.4697C138.83 32.1291 139.009 32.6327 139.366 32.9807C139.723 33.3196 140.167 33.489 140.698 33.489Z" fill="#1F1F1F"/>
<path d="M131.338 34.9999C130.853 34.9999 130.418 34.9175 130.033 34.7527C129.649 34.5787 129.342 34.3314 129.113 34.0109C128.893 33.6812 128.783 33.2829 128.783 32.8159C128.783 32.3488 128.893 31.9596 129.113 31.6483C129.342 31.3278 129.653 31.0897 130.047 30.934C130.45 30.7692 130.908 30.6867 131.421 30.6867L133.289 30.6867L133.289 30.3021C133.289 29.9816 133.188 29.7206 132.987 29.5192C132.785 29.3085 132.465 29.2032 132.025 29.2032C131.595 29.2032 131.274 29.304 131.063 29.5054C130.853 29.6977 130.715 29.9496 130.651 30.2609L129.058 29.7252C129.168 29.3772 129.342 29.0613 129.58 28.7774C129.827 28.4844 130.152 28.2508 130.555 28.0768C130.967 27.8937 131.466 27.8021 132.052 27.8021C132.95 27.8021 133.66 28.0265 134.182 28.4752C134.704 28.9239 134.965 29.5741 134.965 30.4258L134.965 32.967C134.965 33.2417 135.093 33.379 135.349 33.379L135.899 33.379L135.899 34.8076L134.745 34.8076C134.406 34.8076 134.127 34.7252 133.907 34.5604C133.687 34.3955 133.577 34.1758 133.577 33.901L133.577 33.8873L133.316 33.8873C133.28 33.9972 133.197 34.1437 133.069 34.3269C132.941 34.5008 132.739 34.6565 132.465 34.7939C132.19 34.9312 131.814 34.9999 131.338 34.9999ZM131.64 33.5988C132.126 33.5988 132.52 33.466 132.822 33.2005C133.133 32.9258 133.289 32.564 133.289 32.1153L133.289 31.9779L131.544 31.9779C131.224 31.9779 130.972 32.0466 130.789 32.184C130.606 32.3214 130.514 32.5137 130.514 32.7609C130.514 33.0082 130.61 33.2096 130.802 33.3653C130.995 33.521 131.274 33.5988 131.64 33.5988Z" fill="#1F1F1F"/>
<path d="M121.753 34.8076L121.753 25.1923L123.566 25.1923L123.566 33.1593L127.962 33.1593L127.962 34.8076L121.753 34.8076Z" fill="#1F1F1F"/>
<path d="M112.944 34.8077L112.944 27.9945L114.648 27.9945L114.648 28.7637L114.895 28.7637C114.996 28.489 115.16 28.2876 115.389 28.1593C115.628 28.0311 115.902 27.967 116.214 27.967L117.038 27.967L117.038 29.5055L116.186 29.5055C115.747 29.5055 115.385 29.6246 115.101 29.8626C114.817 30.0916 114.675 30.4487 114.675 30.9341L114.675 34.8077L112.944 34.8077Z" fill="#1F1F1F"/>
<path d="M108.156 34.9999C107.478 34.9999 106.878 34.858 106.356 34.5741C105.843 34.2811 105.441 33.8736 105.148 33.3516C104.864 32.8204 104.722 32.1977 104.722 31.4834L104.722 31.3186C104.722 30.6043 104.864 29.9862 105.148 29.4642C105.431 28.9331 105.83 28.5256 106.343 28.2417C106.855 27.9486 107.451 27.8021 108.128 27.8021C108.797 27.8021 109.378 27.9532 109.873 28.2554C110.367 28.5485 110.752 28.9605 111.027 29.4917C111.301 30.0137 111.439 30.6226 111.439 31.3186L111.439 31.9093L106.48 31.9093C106.498 32.3763 106.672 32.7563 107.002 33.0494C107.332 33.3424 107.735 33.4889 108.211 33.4889C108.696 33.4889 109.053 33.3836 109.282 33.173C109.511 32.9624 109.685 32.7289 109.804 32.4725L111.219 33.2142C111.091 33.4523 110.903 33.7133 110.656 33.9972C110.418 34.2719 110.097 34.51 109.694 34.7115C109.291 34.9038 108.778 34.9999 108.156 34.9999ZM106.494 30.6181L109.681 30.6181C109.644 30.2243 109.484 29.9084 109.2 29.6703C108.925 29.4322 108.563 29.3131 108.115 29.3131C107.648 29.3131 107.277 29.4322 107.002 29.6703C106.727 29.9084 106.558 30.2243 106.494 30.6181Z" fill="#1F1F1F"/>
<path d="M100.265 34.9999C99.5875 34.9999 98.9877 34.858 98.4657 34.5741C97.9529 34.2811 97.5499 33.8736 97.2569 33.3516C96.973 32.8204 96.8311 32.1977 96.8311 31.4834L96.8311 31.3186C96.8311 30.6043 96.973 29.9862 97.2569 29.4642C97.5408 28.9331 97.9391 28.5256 98.4519 28.2417C98.9648 27.9486 99.56 27.8021 100.238 27.8021C100.906 27.8021 101.488 27.9532 101.982 28.2554C102.477 28.5485 102.861 28.9605 103.136 29.4917C103.411 30.0137 103.548 30.6226 103.548 31.3186L103.548 31.9093L98.5893 31.9093C98.6076 32.3763 98.7816 32.7563 99.1113 33.0494C99.441 33.3424 99.8439 33.4889 100.32 33.4889C100.805 33.4889 101.163 33.3836 101.392 33.173C101.62 32.9624 101.794 32.7289 101.914 32.4725L103.328 33.2142C103.2 33.4523 103.012 33.7133 102.765 33.9972C102.527 34.2719 102.207 34.51 101.804 34.7115C101.401 34.9038 100.888 34.9999 100.265 34.9999ZM98.603 30.6181L101.79 30.6181C101.753 30.2243 101.593 29.9084 101.309 29.6703C101.034 29.4322 100.673 29.3131 100.224 29.3131C99.7569 29.3131 99.386 29.4322 99.1113 29.6703C98.8366 29.9084 98.6672 30.2243 98.603 30.6181Z" fill="#1F1F1F"/>
<path d="M91.9873 34.8077L91.9873 27.9945L93.6906 27.9945L93.6906 28.7637L93.9379 28.7637C94.0386 28.489 94.2034 28.2876 94.4324 28.1593C94.6705 28.0311 94.9452 27.967 95.2566 27.967L96.0807 27.967L96.0807 29.5055L95.2291 29.5055C94.7895 29.5055 94.4278 29.6246 94.1439 29.8626C93.86 30.0916 93.7181 30.4487 93.7181 30.9341L93.7181 34.8077L91.9873 34.8077Z" fill="#1F1F1F"/>
<path d="M86.1946 34.9999C85.7093 34.9999 85.2743 34.9175 84.8897 34.7527C84.505 34.5787 84.1983 34.3314 83.9693 34.0109C83.7495 33.6812 83.6396 33.2829 83.6396 32.8159C83.6396 32.3488 83.7495 31.9596 83.9693 31.6483C84.1983 31.3278 84.5096 31.0897 84.9034 30.934C85.3063 30.7692 85.7642 30.6867 86.277 30.6867L88.1452 30.6867L88.1452 30.3021C88.1452 29.9816 88.0445 29.7206 87.843 29.5192C87.6415 29.3085 87.321 29.2032 86.8814 29.2032C86.451 29.2032 86.1305 29.304 85.9199 29.5054C85.7093 29.6977 85.5719 29.9496 85.5078 30.2609L83.9144 29.7252C84.0243 29.3772 84.1983 29.0613 84.4364 28.7774C84.6836 28.4844 85.0087 28.2508 85.4116 28.0768C85.8237 27.8937 86.3228 27.8021 86.9089 27.8021C87.8064 27.8021 88.5161 28.0265 89.0381 28.4752C89.56 28.9239 89.821 29.5741 89.821 30.4258L89.821 32.967C89.821 33.2417 89.9492 33.379 90.2056 33.379L90.7551 33.379L90.7551 34.8076L89.6012 34.8076C89.2624 34.8076 88.9831 34.7252 88.7633 34.5604C88.5435 34.3955 88.4337 34.1758 88.4337 33.901L88.4337 33.8873L88.1727 33.8873C88.136 33.9972 88.0536 34.1437 87.9254 34.3269C87.7972 34.5008 87.5957 34.6565 87.321 34.7939C87.0463 34.9312 86.6708 34.9999 86.1946 34.9999ZM86.4968 33.5988C86.9822 33.5988 87.3759 33.466 87.6781 33.2005C87.9895 32.9258 88.1452 32.564 88.1452 32.1153L88.1452 31.9779L86.4007 31.9779C86.0801 31.9779 85.8283 32.0466 85.6452 32.184C85.462 32.3214 85.3704 32.5137 85.3704 32.7609C85.3704 33.0082 85.4666 33.2096 85.6589 33.3653C85.8512 33.521 86.1305 33.5988 86.4968 33.5988Z" fill="#1F1F1F"/>
<path d="M78.8737 35C77.6832 35 76.7399 34.6703 76.044 34.011C75.348 33.3425 75 32.3901 75 31.1538L75 28.8462C75 27.6099 75.348 26.6621 76.044 26.0027C76.7399 25.3342 77.6832 25 78.8737 25C80.055 25 80.9662 25.3251 81.6072 25.9753C82.2574 26.6163 82.5825 27.5 82.5825 28.6264L82.5825 28.7088L80.7968 28.7088L80.7968 28.5714C80.7968 28.0037 80.6365 27.5366 80.316 27.1703C80.0046 26.804 79.5239 26.6209 78.8737 26.6209C78.2326 26.6209 77.729 26.8178 77.3627 27.2115C76.9964 27.6053 76.8132 28.141 76.8132 28.8187L76.8132 31.1813C76.8132 31.8498 76.9964 32.3855 77.3627 32.7885C77.729 33.1822 78.2326 33.3791 78.8737 33.3791C79.5239 33.3791 80.0046 33.196 80.316 32.8297C80.6365 32.4542 80.7968 31.9872 80.7968 31.4286L80.7968 31.1813L82.5825 31.1813L82.5825 31.3736C82.5825 32.5 82.2574 33.3883 81.6072 34.0385C80.9662 34.6795 80.055 35 78.8737 35Z" fill="#1F1F1F"/>
<path d="M135.189 49.9654C134.534 49.9654 133.932 49.8258 133.381 49.5467C132.831 49.2675 132.395 48.8628 132.073 48.3324C131.751 47.802 131.59 47.174 131.59 46.4482L131.59 46.2668C131.59 45.541 131.751 44.9176 132.073 44.3965C132.395 43.8661 132.826 43.4614 133.366 43.1822C133.916 42.8938 134.524 42.7496 135.189 42.7496C135.718 42.7496 136.165 42.8147 136.528 42.945C136.902 43.0659 137.203 43.2241 137.432 43.4195C137.66 43.6056 137.837 43.8056 137.962 44.0197L138.18 44.0197L138.18 40L139.41 40L139.41 49.77L138.211 49.77L138.211 48.6395L137.993 48.6395C137.785 48.9837 137.463 49.2908 137.027 49.5606C136.591 49.8305 135.978 49.9654 135.189 49.9654ZM135.516 48.9884C136.305 48.9884 136.944 48.7651 137.432 48.3185C137.93 47.8625 138.18 47.2298 138.18 46.4203L138.18 46.2947C138.18 45.4852 137.93 44.8571 137.432 44.4105C136.944 43.9545 136.305 43.7266 135.516 43.7266C134.737 43.7266 134.093 43.9545 133.584 44.4105C133.085 44.8571 132.836 45.4852 132.836 46.2947L132.836 46.4203C132.836 47.2298 133.085 47.8625 133.584 48.3185C134.093 48.7651 134.737 48.9884 135.516 48.9884Z" fill="#594747"/>
<path d="M123.396 49.7348L123.396 42.9098L124.596 42.9098L124.596 44.0682L124.814 44.0682C124.98 43.7426 125.261 43.4495 125.655 43.1889C126.06 42.9191 126.652 42.7842 127.431 42.7842C128.003 42.7842 128.512 42.8912 128.958 43.1052C129.415 43.3192 129.779 43.6356 130.049 44.0543C130.319 44.473 130.454 44.9894 130.454 45.6035L130.454 49.7348L129.223 49.7348L129.223 45.6873C129.223 45.008 129.031 44.5149 128.647 44.2078C128.273 43.9008 127.764 43.7472 127.12 43.7472C126.382 43.7472 125.78 43.9612 125.313 44.3893C124.856 44.8173 124.627 45.4546 124.627 46.3014L124.627 49.7348L123.396 49.7348Z" fill="#594747"/>
<path d="M117.205 50C116.676 50 116.193 49.9163 115.757 49.7488C115.32 49.5813 114.978 49.3394 114.728 49.023C114.479 48.7067 114.354 48.3205 114.354 47.8646C114.354 47.3993 114.479 47.0178 114.728 46.7201C114.978 46.413 115.32 46.1851 115.757 46.0362C116.193 45.878 116.681 45.7989 117.221 45.7989L119.792 45.7989L119.792 45.2965C119.792 44.8126 119.631 44.4311 119.309 44.152C118.997 43.8728 118.53 43.7333 117.906 43.7333C117.294 43.7333 116.816 43.8682 116.473 44.138C116.13 44.3986 115.897 44.7521 115.772 45.1988L114.619 44.8638C114.744 44.4823 114.941 44.138 115.211 43.831C115.481 43.5146 115.84 43.2634 116.286 43.0773C116.743 42.8819 117.289 42.7842 117.922 42.7842C118.898 42.7842 119.657 43.0121 120.197 43.4681C120.737 43.9147 121.007 44.5474 121.007 45.3663L121.007 48.4508C121.007 48.7299 121.152 48.8695 121.443 48.8695L122.144 48.8695L122.144 49.8046L121.069 49.8046C120.726 49.8046 120.451 49.7209 120.243 49.5534C120.036 49.3766 119.932 49.144 119.932 48.8555L119.932 48.7857L119.745 48.7857C119.631 48.9625 119.475 49.1486 119.277 49.344C119.09 49.5301 118.831 49.6837 118.498 49.8046C118.166 49.9349 117.735 50 117.205 50ZM117.346 49.0509C118.073 49.0509 118.659 48.8602 119.106 48.4787C119.563 48.0879 119.792 47.5436 119.792 46.8457L119.792 46.6922L117.268 46.6922C116.78 46.6922 116.375 46.7899 116.053 46.9853C115.741 47.1714 115.585 47.4552 115.585 47.8367C115.585 48.2182 115.746 48.5159 116.068 48.7299C116.401 48.9439 116.826 49.0509 117.346 49.0509Z" fill="#594747"/>
<path d="M110.966 49.77L110.966 40L112.197 40L112.197 49.77L110.966 49.77Z" fill="#594747"/>
<path d="M106.771 49.8278L106.771 43.0027L108.002 43.0027L108.002 49.8278L106.771 49.8278ZM107.395 41.942C107.125 41.942 106.896 41.8629 106.709 41.7047C106.533 41.5465 106.444 41.3465 106.444 41.1046C106.444 40.8533 106.533 40.6486 106.709 40.4904C106.896 40.3323 107.125 40.2532 107.395 40.2532C107.665 40.2532 107.888 40.3323 108.065 40.4904C108.241 40.6486 108.329 40.8533 108.329 41.1046C108.329 41.3465 108.241 41.5465 108.065 41.7047C107.888 41.8629 107.665 41.942 107.395 41.942Z" fill="#594747"/>
<path d="M100.253 50C99.7236 50 99.2407 49.9163 98.8044 49.7488C98.3682 49.5813 98.0255 49.3394 97.7762 49.023C97.527 48.7067 97.4023 48.3205 97.4023 47.8646C97.4023 47.3993 97.527 47.0178 97.7762 46.7201C98.0255 46.413 98.3682 46.1851 98.8044 46.0362C99.2407 45.878 99.7288 45.7989 100.269 45.7989L102.839 45.7989L102.839 45.2965C102.839 44.8126 102.678 44.4311 102.356 44.152C102.045 43.8728 101.577 43.7333 100.954 43.7333C100.342 43.7333 99.8638 43.8682 99.5211 44.138C99.1783 44.3986 98.9447 44.7521 98.82 45.1988L97.6672 44.8638C97.7918 44.4823 97.9892 44.138 98.2592 43.831C98.5292 43.5146 98.8875 43.2634 99.3341 43.0773C99.7911 42.8819 100.336 42.7842 100.97 42.7842C101.946 42.7842 102.704 43.0121 103.244 43.4681C103.785 43.9147 104.055 44.5474 104.055 45.3663L104.055 48.4508C104.055 48.7299 104.2 48.8695 104.491 48.8695L105.192 48.8695L105.192 49.8046L104.117 49.8046C103.774 49.8046 103.499 49.7209 103.291 49.5534C103.083 49.3766 102.98 49.144 102.98 48.8555L102.98 48.7857L102.793 48.7857C102.678 48.9625 102.523 49.1486 102.325 49.344C102.138 49.5301 101.879 49.6837 101.546 49.8046C101.214 49.9349 100.783 50 100.253 50ZM100.393 49.0509C101.121 49.0509 101.707 48.8602 102.154 48.4787C102.611 48.0879 102.839 47.5436 102.839 46.8457L102.839 46.6922L100.316 46.6922C99.8275 46.6922 99.4224 46.7899 99.1004 46.9853C98.7889 47.1714 98.6331 47.4552 98.6331 47.8367C98.6331 48.2182 98.7941 48.5159 99.116 48.7299C99.4484 48.9439 99.8742 49.0509 100.393 49.0509Z" fill="#594747"/>
<path d="M89.208 49.77L89.208 40L90.4387 40L90.4387 44.0336L90.6568 44.0336C90.7607 43.8289 90.9165 43.6382 91.1242 43.4614C91.3423 43.2753 91.6175 43.1217 91.9499 43.0008C92.2926 42.8798 92.7237 42.8193 93.2429 42.8193C93.8142 42.8193 94.3231 42.931 94.7697 43.1543C95.2267 43.3683 95.5902 43.6847 95.8602 44.1034C96.1302 44.5128 96.2653 45.0246 96.2653 45.6387L96.2653 49.77L95.0345 49.77L95.0345 45.7224C95.0345 45.0432 94.8424 44.55 94.4581 44.243C94.0842 43.9359 93.5753 43.7824 92.9314 43.7824C92.194 43.7824 91.5916 43.9964 91.1242 44.4244C90.6672 44.8524 90.4387 45.4898 90.4387 46.3365L90.4387 49.77L89.208 49.77Z" fill="#594747"/>
<path d="M83.392 49.77L83.392 41.0607L79.8867 41.0607L79.8867 40L88.2059 40L88.2059 41.0607L84.7006 41.0607L84.7006 49.77L83.392 49.77Z" fill="#594747"/>
<defs>
<linearGradient id="paint0_linear_1031_3574" x1="37.5" y1="-15.6118" x2="37.5" y2="72" gradientUnits="userSpaceOnUse">
<stop stop-color="white" stop-opacity="0.7"/>
<stop offset="1" stop-color="#7E7E7E" stop-opacity="0"/>
</linearGradient>
<linearGradient id="paint1_linear_1031_3574" x1="31.6994" y1="16.6695" x2="45.9329" y2="32.6145" gradientUnits="userSpaceOnUse">
<stop stop-color="#3A86FF"/>
<stop offset="0.5" stop-color="#7363B7"/>
<stop offset="1" stop-color="#D72638"/>
</linearGradient>
</defs>
</svg>
