<svg width="227" height="25" viewBox="0 0 227 25" fill="none" xmlns="http://www.w3.org/2000/svg">
<g clip-path="url(#clip0_673_2246)">
<path d="M46.4802 22.0186C46.5856 22.2922 46.8176 22.5659 47.1762 22.8396C47.5348 23.1133 48.1675 23.4922 49.0534 23.9765V24.3975H38.9293V23.9344L41.6923 22.2501V7.72383L35.7233 19.2186C34.732 21.1344 33.825 22.9449 33.0024 24.6501H32.7071L25.8944 7.57646L24.2282 20.0396C24.1016 21.0291 24.0384 21.6607 24.0384 21.8922C24.0384 22.0817 24.1016 22.2712 24.2282 22.3975C24.3547 22.5449 24.6078 22.7344 24.9875 22.9659C25.3671 23.1975 25.9788 23.5344 26.8014 23.9344V24.3975H19.2505V23.9344L22.1401 22.187L24.3969 5.00804L21.6972 1.85014V1.40804H28.1513L34.7531 17.4501L39.4776 8.10278C40.237 6.60804 40.7853 5.32383 41.165 4.3133C41.5447 3.28172 41.7978 2.3133 41.9243 1.40804H49.0112V1.82909L46.3114 3.55541V20.7975C46.3325 21.3449 46.3747 21.7449 46.4802 22.0186ZM56.4145 23.4712C54.6849 22.4817 53.3139 21.1344 52.3226 19.387C51.3313 17.6607 50.8462 15.6817 50.8462 13.4922C50.8462 10.9449 51.479 8.7133 52.7656 6.81856C54.0311 4.90278 55.6341 3.45014 57.5745 2.43962C59.515 1.42909 61.4343 0.923828 63.3326 0.923828C65.4207 0.923828 67.319 1.45014 69.0485 2.48172C70.7781 3.5133 72.149 4.94488 73.1615 6.73435C74.1739 8.52383 74.6801 10.5028 74.6801 12.6291C74.6801 14.8817 74.1528 16.9449 73.0771 18.8396C72.0014 20.7133 70.525 22.208 68.6478 23.3028C66.7706 24.3975 64.6614 24.9449 62.3624 24.9449C60.1266 24.9449 58.144 24.4607 56.4145 23.4712ZM65.4629 23.1975C66.7495 22.1238 67.7408 20.7344 68.4369 19.0922C69.1329 17.4291 69.4915 15.5975 69.4915 13.5975C69.4915 11.7238 69.154 9.97646 68.479 8.39751C67.8041 6.79751 66.8339 5.53435 65.5684 4.60804C64.3028 3.66067 62.8264 3.19751 61.1391 3.19751C60.1266 3.19751 59.1986 3.36593 58.3549 3.72383C57.6167 4.65014 57.0472 5.85014 56.6043 7.28172C56.1825 8.73435 55.9504 10.2291 55.9504 11.808C55.9504 13.8291 56.3512 15.7028 57.1527 17.4501C57.9542 19.1975 59.051 20.587 60.4641 21.6396C61.8773 22.6922 63.4381 23.2186 65.1887 23.2186H65.4629V23.1975ZM102.796 22.0186C102.901 22.2922 103.133 22.5659 103.492 22.8396C103.85 23.1133 104.483 23.4922 105.369 23.9765V24.3975H95.2447V23.9344L98.0078 22.2501V7.72383L92.0387 19.2186C91.0474 21.1344 90.1405 22.9449 89.3179 24.6501H89.0226L82.2099 7.57646L80.5436 20.0396C80.4171 21.0291 80.3538 21.6607 80.3538 21.8922C80.3538 22.0817 80.4171 22.2712 80.5436 22.3975C80.6702 22.5449 80.9233 22.7344 81.3029 22.9659C81.6826 23.1975 82.2943 23.5344 83.1169 23.9344V24.3975H75.5659V23.9344L78.4555 22.187L80.7124 5.00804L78.0126 1.85014V1.40804H84.4667L91.0685 17.4501L95.7931 8.10278C96.5524 6.60804 97.1008 5.32383 97.4805 4.3133C97.8601 3.28172 98.1132 2.3133 98.2398 1.40804H105.327V1.82909L102.627 3.55541V20.7975C102.648 21.3449 102.69 21.7449 102.796 22.0186ZM125.364 6.12383L124.9 6.46067L121.146 2.92383H114.459V11.808H118.615L120.302 7.63962H120.66V19.0712H120.239L118.762 14.208H114.481V22.9028H119.437C120.154 22.9028 120.724 22.8186 121.167 22.6712C121.61 22.5238 122.137 22.187 122.727 21.6607C123.318 21.1344 124.183 20.2712 125.28 19.0501L125.68 19.3238L124.077 24.4396H107.436V24.0396L109.819 22.5238V3.59751L107.267 1.9133V1.40804H123.782L125.364 6.12383ZM150.653 1.85014L147.595 3.74488V24.608H145.401L131.523 6.14488V22.0607L135.151 23.9765V24.4396H125.912V23.9765L129.667 21.9133V4.10278L126.672 1.8712V1.40804H133.611L145.739 17.4922V3.70278L142.976 1.85014V1.42909H150.653V1.85014ZM156.369 23.9554L159.427 22.3975V3.00804H155.441L151.855 6.88172L151.455 6.75541L152.446 1.40804H171.281L172.188 6.81856L171.787 7.00804L168.202 2.98699H164.11V22.3765L167.168 23.9344V24.3975H156.369V23.9554ZM196.465 1.85014L193.47 3.57646V16.208C193.47 18.0396 193.111 19.6186 192.415 20.9238C191.698 22.2291 190.707 23.2396 189.399 23.9344C188.112 24.6291 186.552 24.9659 184.759 24.9659C183.282 24.9659 181.911 24.6922 180.688 24.1449C179.465 23.5975 178.41 22.8396 177.566 21.8501C176.723 20.8607 176.069 19.6817 175.647 18.2922V3.53435L172.715 1.85014V1.42909H183.177V1.85014L180.287 3.5133V16.1449C180.287 18.0607 180.751 19.5344 181.658 20.5659C182.565 21.5975 183.894 22.1028 185.603 22.1028C186.826 22.1028 187.88 21.8291 188.766 21.2817C189.673 20.7344 190.348 19.9765 190.812 19.008C191.276 18.0396 191.508 16.9449 191.508 15.7028V3.53435L188.619 1.85014V1.42909H196.423V1.85014H196.465ZM223.927 22.0186C224.032 22.2922 224.264 22.5659 224.623 22.8396C224.981 23.1133 225.614 23.4922 226.5 23.9765V24.3975H216.376V23.9344L219.139 22.2501V7.72383L213.191 19.1975C212.199 21.1133 211.292 22.9238 210.47 24.6291H210.154L203.341 7.55541L201.675 20.0186C201.548 21.008 201.485 21.6396 201.485 21.8712C201.485 22.0607 201.548 22.2501 201.675 22.3765C201.801 22.5238 202.054 22.7133 202.434 22.9449C202.814 23.1765 203.425 23.5133 204.248 23.9133V24.3765H196.697V23.9133L199.586 22.1659L201.843 4.98699L199.144 1.82909V1.40804H205.598L212.199 17.4501L216.924 8.10278C217.683 6.60804 218.232 5.32383 218.611 4.3133C218.991 3.28172 219.244 2.3133 219.371 1.40804H226.458V1.82909L223.758 3.55541V20.7975C223.779 21.3449 223.821 21.7449 223.927 22.0186Z" fill="#221F1F"/>
<path d="M6.91195 3.61877L6.27919 2.01877H4.80275L3.15758 10.0609L4.17 10.5872L4.1489 10.7767H0.668735L0.710919 10.6082C1.09057 10.4188 1.34368 10.2714 1.51241 10.1872C1.66006 10.0819 1.78661 9.99772 1.84988 9.89246C1.91316 9.78719 1.95534 9.63982 1.99753 9.45035L3.51615 2.03982H2.08189L0.668735 3.63982H0.5L1.19603 1.4293H7.2916L7.08068 3.63982H6.91195V3.61877ZM12.9442 10.6714L12.9231 10.7977H10.8772L11.5733 7.68193C11.6998 7.0714 11.7842 6.65035 11.7842 6.41877C11.7842 6.16614 11.7209 5.97667 11.5733 5.8293C11.4467 5.68193 11.2569 5.61877 11.0249 5.61877C10.7929 5.61877 10.5608 5.68193 10.3499 5.80825C10.139 5.93456 9.92809 6.12403 9.75936 6.39772C9.59062 6.6714 9.46407 7.00825 9.3797 7.40825L8.81022 10.2082C9.02114 10.3346 9.29533 10.4819 9.6328 10.6504L9.56953 10.7977H6.86976L6.89085 10.6293C7.16505 10.524 7.41815 10.3977 7.67126 10.2293L9.18987 2.75561C9.25315 2.48193 9.27424 2.29245 9.27424 2.20824C9.27424 2.12403 9.25315 2.03982 9.18987 1.97667C9.1266 1.91351 9.02114 1.8293 8.83131 1.70298L8.8524 1.57667L10.835 1.0293L10.8983 1.15561C10.7718 1.26088 10.6874 1.38719 10.6241 1.53456C10.5608 1.68193 10.4765 1.93456 10.4132 2.25035L9.59062 6.12403C9.97027 5.61877 10.3499 5.23982 10.7085 5.00824C11.0671 4.75561 11.4045 4.65035 11.742 4.65035C11.9951 4.65035 12.206 4.71351 12.3748 4.83982C12.5646 4.96614 12.6911 5.13456 12.7966 5.34509C12.9021 5.55561 12.9442 5.78719 12.9442 6.06088C12.9442 6.25035 12.9021 6.50298 12.8599 6.79772L12.1217 10.2082L12.9442 10.6714ZM18.5125 7.28193C17.9852 7.61877 17.1204 7.80824 15.8971 7.80824C15.8549 8.01877 15.8338 8.25035 15.8338 8.48193C15.8338 8.94509 15.9393 9.32403 16.1713 9.59772C16.4033 9.8714 16.7197 9.99772 17.1415 9.99772C17.3735 9.99772 17.6056 9.95561 17.8376 9.85035C18.0696 9.74509 18.2805 9.59772 18.5125 9.38719L18.6391 9.4293L18.1961 10.5451C17.9852 10.6714 17.7532 10.7556 17.5212 10.8188C17.2681 10.8819 17.0361 10.924 16.783 10.924C16.3611 10.924 15.9815 10.8398 15.6651 10.6714C15.3487 10.503 15.0956 10.2503 14.9058 9.91351C14.716 9.57667 14.6316 9.15561 14.6316 8.6714C14.6316 7.99772 14.7792 7.36614 15.0956 6.75561C15.3909 6.14509 15.8127 5.63982 16.3189 5.26088C16.8252 4.88193 17.3735 4.69246 17.943 4.69246C18.3649 4.69246 18.6812 4.79772 18.9343 5.0293C19.1874 5.26088 19.314 5.55561 19.314 5.93456C19.2929 6.48193 19.0398 6.92403 18.5125 7.28193ZM16.572 5.85035C16.2979 6.2714 16.0869 6.77667 15.9604 7.36614C16.4877 7.36614 16.9095 7.28193 17.2681 7.13456C17.6056 6.98719 17.8587 6.81877 18.0063 6.60824C18.1539 6.39772 18.2383 6.16614 18.2383 5.93456C18.2383 5.70298 18.175 5.53456 18.0485 5.38719C17.9219 5.26088 17.7532 5.17667 17.5423 5.17667C17.1626 5.21877 16.8462 5.4293 16.572 5.85035Z" fill="#221F1F"/>
</g>
<defs>
<clipPath id="clip0_673_2246">
<rect width="226" height="24" fill="white" transform="translate(0.5 0.944824)"/>
</clipPath>
</defs>
</svg>
