<svg width="24" height="24" viewBox="0 0 24 24" fill="none" xmlns="http://www.w3.org/2000/svg">
<path d="M15.6007 4.22773L15.0269 7.61285H8.97219L8.39844 4.22773C8.50492 4.21428 8.60616 4.1737 8.69245 4.10987C8.77873 4.04604 8.84717 3.96111 8.89119 3.86323L10.9871 4.91285L11.7869 2.5166C11.9251 2.5616 12.074 2.5616 12.2122 2.5166L13.0121 4.91285L15.1079 3.86323C15.152 3.96111 15.2204 4.04604 15.3067 4.10987C15.393 4.1737 15.4942 4.21428 15.6007 4.22773Z" fill="#FFCC66"/>
<path d="M12.2124 2.51645C12.0742 2.56145 11.9253 2.56145 11.7871 2.51645C11.1189 2.31057 11.1897 1.21707 11.9997 1.2002C12.8097 1.21707 12.8806 2.31057 12.2124 2.51645Z" fill="#FFBA55"/>
<path d="M8.89191 3.86307C8.8479 3.96096 8.77946 4.04589 8.69317 4.10972C8.60689 4.17354 8.50565 4.21413 8.39916 4.22757C8.36246 4.23459 8.32516 4.23799 8.28779 4.2377C7.40016 4.22082 7.40016 2.90457 8.28779 2.8877C8.86829 2.89782 9.0706 3.46482 8.89191 3.86307Z" fill="#FFBA55"/>
<path d="M15.712 4.2377C15.6747 4.23799 15.6374 4.23459 15.6007 4.22757C15.4942 4.21413 15.3929 4.17354 15.3067 4.10972C15.2204 4.04589 15.1519 3.96096 15.1079 3.86307C14.929 3.46463 15.1313 2.89782 15.712 2.8877C16.5997 2.90457 16.5997 4.22082 15.712 4.2377Z" fill="#FFBA55"/>
<path d="M19.4214 12.6754H14.3623L17.3998 8.96289L19.4214 12.6754Z" fill="#9FDBF3"/>
<path d="M17.4 8.96289L14.3625 12.6754L12 8.96289H17.4Z" fill="#B2E5FB"/>
<path d="M11.9996 8.96289L9.63711 12.6754L6.59961 8.96289H11.9996Z" fill="#B2E5FB"/>
<path d="M9.6377 12.6754H4.5752L6.6002 8.96289L9.6377 12.6754Z" fill="#9FDBF3"/>
<path d="M14.3627 12.6754H9.6377L12.0002 8.96289L14.3627 12.6754Z" fill="#8BD1EA"/>
<path d="M12.0002 22.7998L4.5752 12.6748H9.6377L12.0002 22.7998Z" fill="#B2E5FB"/>
<path d="M19.425 12.6748L12 22.7998L14.3625 12.6748H19.425Z" fill="#B2E5FB"/>
<path d="M14.3627 12.6748L12.0002 22.7998L9.6377 12.6748H14.3627Z" fill="#9FDBF3"/>
<path d="M20.4379 6.26172L20.9427 7.10655L21.7876 7.61177L20.9427 8.11656L20.4379 8.96177L19.9327 8.11656L19.0879 7.61177L19.9327 7.10655L20.4379 6.26172Z" fill="#FFDE76"/>
<path d="M19.2565 17.3994L19.6985 18.1387L20.4378 18.5807L19.6985 19.0226L19.2565 19.762L18.8145 19.0226L18.0752 18.5807L18.8145 18.1387L19.2565 17.3994Z" fill="#FFDE76"/>
<path d="M5.56977 18.0742L6.07485 18.9191L6.91977 19.4242L6.07485 19.9293L5.56977 20.7743L5.06465 19.9293L4.21973 19.4242L5.06465 18.9191L5.56977 18.0742Z" fill="#FFDE76"/>
<path d="M3.56289 3.89941L4.06797 4.74462L4.91294 5.24941L4.06797 5.75459L3.56289 6.59941L3.05781 5.75459L2.21289 5.24941L3.05781 4.74462L3.56289 3.89941Z" fill="#FFDE76"/>
</svg>
