<svg width="24" height="24" viewBox="0 0 24 24" fill="none" xmlns="http://www.w3.org/2000/svg">
<path d="M5.25 9.75H7.125V20.25H5.25V9.75Z" fill="#EDEFF1"/>
<path d="M5.25 9.75H6V20.25H5.25V9.75Z" fill="#D3D3D3"/>
<path d="M0.75 9H5.25V21H0.75V9Z" fill="#FFB0AA"/>
<path d="M20.7161 19.743L22.4355 13.725C22.4782 13.5757 22.5435 13.434 22.6298 13.305L22.998 12.7526C23.1623 12.5066 23.25 12.2171 23.25 11.9209V10.125C23.25 9.71063 22.9144 9.375 22.5 9.375H16.5C15.6716 9.375 15 8.70337 15 7.875V4.125C15 3.29662 14.3284 2.625 13.5 2.625H13.125C12.2966 2.625 11.625 3.29662 11.625 4.125V5.88863C11.625 6.5115 11.2478 7.0905 10.6583 7.29037C9.74775 7.59937 8.94863 8.31338 8.70263 9.19088C8.61075 9.519 8.32012 9.75 7.97962 9.75H7.125V20.25H7.94213C8.14538 20.25 8.34637 20.2913 8.53312 20.3711L10.1678 21.0716C10.6343 21.2719 11.1367 21.375 11.6449 21.375H18.5531C19.5574 21.375 20.4401 20.709 20.7161 19.743Z" fill="#FFD3B3"/>
<path d="M3 12.75C3.51777 12.75 3.9375 12.3303 3.9375 11.8125C3.9375 11.2947 3.51777 10.875 3 10.875C2.48223 10.875 2.0625 11.2947 2.0625 11.8125C2.0625 12.3303 2.48223 12.75 3 12.75Z" fill="#FFE352"/>
</svg>
