<svg width="24" height="25" viewBox="0 0 24 25" fill="none" xmlns="http://www.w3.org/2000/svg">
<path d="M12.0283 0.5C5.40066 0.5 0.0283203 5.87281 0.0283203 12.5C0.0283203 19.1272 5.40066 24.5 12.0283 24.5C18.656 24.5 24.0283 19.1277 24.0283 12.5C24.0283 5.87234 18.656 0.5 12.0283 0.5ZM18.8721 10.5134L11.6589 18.088C11.4625 18.2942 11.2264 18.4586 10.9649 18.5714C10.7034 18.6842 10.4217 18.743 10.1369 18.7442H10.1271C9.84389 18.7443 9.56359 18.6875 9.30279 18.5771C9.04198 18.4668 8.80598 18.3053 8.60879 18.102L4.78098 14.1589C4.58322 13.9604 4.42686 13.7246 4.32097 13.4652C4.21508 13.2058 4.16177 12.9279 4.16413 12.6477C4.16649 12.3675 4.22448 12.0906 4.33472 11.833C4.44497 11.5754 4.60528 11.3423 4.80635 11.1471C5.00742 10.952 5.24525 10.7987 5.50603 10.6962C5.76681 10.5937 6.04535 10.5441 6.32548 10.5501C6.60561 10.5561 6.88176 10.6177 7.13789 10.7313C7.39402 10.8449 7.62504 11.0083 7.81754 11.2119L10.1116 13.5753L15.8069 7.595C15.9985 7.39374 16.2279 7.23219 16.482 7.11958C16.7361 7.00698 17.0098 6.94551 17.2876 6.9387C17.5654 6.93189 17.8419 6.97986 18.1011 7.07988C18.3604 7.1799 18.5975 7.33001 18.7987 7.52164C19 7.71327 19.1615 7.94266 19.2741 8.19672C19.3867 8.45078 19.4482 8.72453 19.455 9.00235C19.4618 9.28016 19.4139 9.5566 19.3138 9.81587C19.2138 10.0751 19.0637 10.3122 18.8721 10.5134Z" fill="url(#paint0_linear_1258_2833)"/>
<defs>
<linearGradient id="paint0_linear_1258_2833" x1="0.0283203" y1="12.5" x2="24.0283" y2="12.5" gradientUnits="userSpaceOnUse">
<stop stop-color="#0CAA0C"/>
<stop offset="0.6" stop-color="#4BD14B"/>
<stop offset="1" stop-color="#60E260"/>
</linearGradient>
</defs>
</svg>
