<svg width="24" height="24" viewBox="0 0 24 24" fill="none" xmlns="http://www.w3.org/2000/svg">
<path d="M21.4606 9.28035H14.9596C14.8507 9.28035 14.7555 9.21105 14.7218 9.10795L12.713 2.92485C12.6105 2.60995 12.3307 2.40625 11.9996 2.40625C11.6685 2.40625 11.3888 2.60985 11.2862 2.92485L9.27741 9.10795C9.24371 9.21095 9.14851 9.28035 9.03961 9.28035H2.53881C2.20771 9.28035 1.92751 9.48395 1.82541 9.79895C1.72291 10.1138 1.83031 10.443 2.09791 10.6374L7.35771 14.4592C7.44511 14.5227 7.48171 14.6344 7.44801 14.7379L5.43921 20.921C5.33671 21.2355 5.44361 21.5646 5.71121 21.7594C5.97981 21.9542 6.32501 21.9542 6.59351 21.7594L11.8528 17.9382C11.9412 17.8757 12.0584 17.8747 12.1467 17.9382L17.406 21.7594C17.5403 21.8571 17.6936 21.9054 17.8469 21.9054C18.0007 21.9054 18.154 21.8566 18.2883 21.7594C18.5559 21.5646 18.6628 21.2355 18.5603 20.921L16.5515 14.7379C16.5178 14.6344 16.5544 14.5227 16.6423 14.4587L21.9016 10.6374C22.1692 10.4431 22.2766 10.1139 22.1741 9.79895C22.072 9.48405 21.7917 9.28035 21.4606 9.28035Z" fill="#F0E486"/>
<path d="M10.1503 14.4603C10.2303 14.5203 10.2703 14.6303 10.2403 14.7403L8.38032 20.4603L6.59032 21.7603C6.33033 21.9503 5.98033 21.9503 5.71033 21.7603C5.44033 21.5603 5.34033 21.2403 5.44033 20.9203L7.45032 14.7403C7.48032 14.6303 7.45033 14.5203 7.36032 14.4603L2.10032 10.6403C1.83032 10.4403 1.72032 10.1103 1.83032 9.80027C1.93032 9.48027 2.21032 9.28027 2.54032 9.28027H5.33032C5.00032 9.28027 4.72032 9.48027 4.61033 9.80027C4.51033 10.1103 4.62032 10.4403 4.89032 10.6403L10.1503 14.4603Z" fill="#D9CE79"/>
<path d="M12.71 2.92016L13.39 5.02016L12.07 9.11016C12.03 9.21016 11.94 9.28016 11.83 9.28016H9.04004C9.15004 9.28016 9.24004 9.21016 9.28014 9.11016L11.29 2.92016C11.39 2.61016 11.67 2.41016 12 2.41016C12.33 2.41016 12.61 2.61016 12.71 2.92016Z" fill="#D9CE79"/>
<path d="M15.8883 5.22379L16.4801 5.52019L16.7765 6.11199C16.819 6.19649 16.9054 6.25019 17.0001 6.25019C17.0948 6.25019 17.1813 6.19649 17.2237 6.11199L17.5201 5.52019L18.1119 5.22379C18.1964 5.18129 18.2501 5.09489 18.2501 5.00019C18.2501 4.90549 18.1964 4.81899 18.1119 4.77659L17.5201 4.48019L17.2237 3.88839C17.1387 3.71949 16.8614 3.71949 16.7764 3.88839L16.48 4.48019L15.8882 4.77659C15.8037 4.81909 15.75 4.90549 15.75 5.00019C15.75 5.09489 15.8038 5.18139 15.8883 5.22379Z" fill="#F0E486"/>
<path d="M23.1119 3.77659L21.8531 3.14719L21.2237 1.88839C21.1387 1.71949 20.8614 1.71949 20.7764 1.88839L20.147 3.14719L18.8882 3.77659C18.8037 3.81909 18.75 3.90549 18.75 4.00019C18.75 4.09489 18.8037 4.18139 18.8882 4.22379L20.147 4.85319L20.7764 6.11199C20.8189 6.19649 20.9053 6.25019 21 6.25019C21.0947 6.25019 21.1812 6.19649 21.2236 6.11199L21.853 4.85319L23.1118 4.22379C23.1963 4.18129 23.25 4.09489 23.25 4.00019C23.25 3.90549 23.1964 3.81899 23.1119 3.77659Z" fill="#F0E486"/>
<path d="M5.1119 16.7766L3.8531 16.1472L3.2237 14.8884C3.1387 14.7195 2.8614 14.7195 2.7764 14.8884L2.147 16.1472L0.8882 16.7766C0.8037 16.8191 0.75 16.9055 0.75 17.0002C0.75 17.0949 0.8037 17.1814 0.8882 17.2238L2.147 17.8532L2.7764 19.112C2.8189 19.1965 2.9053 19.2502 3 19.2502C3.0947 19.2502 3.1812 19.1965 3.2236 19.112L3.853 17.8532L5.1118 17.2238C5.1963 17.1813 5.25 17.0949 5.25 17.0002C5.25 16.9055 5.1964 16.819 5.1119 16.7766Z" fill="#F0E486"/>
</svg>
